<svg version="1.1" id="Primer_plano" xmlns="http://www.w3.org/2000/svg" xmlns:xlink="http://www.w3.org/1999/xlink" x="0" y="0" viewBox="0 0 270.82 77.36" style="enable-background:new 0 0 270.82 77.36" xml:space="preserve">
  <style>
    .st0{fill:#211915}.st1{fill-rule:evenodd;clip-rule:evenodd;fill:#b60027}.st1,.st2{stroke:#211915;stroke-width:.116;stroke-miterlimit:3.8637}.st2,.st3,.st4{fill-rule:evenodd;clip-rule:evenodd;fill:#a07e00}.st4{stroke:#211915;stroke-width:.1328;stroke-miterlimit:3.8637}.st6{fill:none}.st7,.st8{fill:none;stroke:#211915;stroke-width:.116;stroke-miterlimit:3.8637}.st8{fill:#fff}.st10,.st8,.st9{fill-rule:evenodd;clip-rule:evenodd}.st9{fill:#006f46;stroke:#211915;stroke-width:.116;stroke-miterlimit:3.8637}.st10{fill:#b60027}.st12,.st13,.st14,.st15,.st16,.st17,.st18{fill:none;stroke:#211915;stroke-width:.145;stroke-miterlimit:3.8637}.st13,.st14,.st15,.st16,.st17,.st18{stroke-width:.174}.st14,.st15,.st16,.st17,.st18{stroke-width:.203}.st15,.st16,.st17,.st18{stroke-width:.2273}.st16,.st17,.st18{stroke-width:.2558}.st17,.st18{stroke-width:.2842}.st18{fill:#a07e00;stroke-width:.116}.st19{fill-rule:evenodd;clip-rule:evenodd;fill:#a07e00}.st19,.st20,.st21{stroke:#211915;stroke-width:.174;stroke-miterlimit:3.8637}.st20{fill-rule:evenodd;clip-rule:evenodd;fill:#0044ae}.st21{fill:#bcbab9}.st21,.st22,.st23,.st27{fill-rule:evenodd;clip-rule:evenodd}.st22{fill:#b60027;stroke:#211915;stroke-width:.174;stroke-miterlimit:3.8637}.st23,.st27{fill:#bcbab9}.st27{fill:#fff;stroke:#211915;stroke-miterlimit:3.8637}.st27,.st28{stroke-width:.1026}.st28,.st29,.st40,.st41,.st45{fill:none;stroke:#211915;stroke-miterlimit:3.8637}.st29{stroke-width:.116;stroke-linecap:round}.st40,.st41,.st45{stroke-width:.232}.st41,.st45{stroke-width:.261}.st45{stroke-width:.3771}.st54{fill-rule:evenodd;clip-rule:evenodd;fill:#fff}.st54,.st55,.st56,.st60,.st61{stroke:#211915;stroke-width:.174;stroke-miterlimit:3.8637}.st55{fill-rule:evenodd;clip-rule:evenodd;fill:#006f46}.st56,.st60,.st61{fill:#a07e00}.st60,.st61{fill-rule:evenodd;clip-rule:evenodd;fill:#bcbab9;stroke-width:.232}.st61{fill:#b60027}.st67,.st71,.st72,.st74,.st76,.st79{fill:none;stroke:#b60027;stroke-width:.116;stroke-miterlimit:3.8637}.st71,.st72,.st74,.st76,.st79{fill-rule:evenodd;clip-rule:evenodd;fill:#211915;stroke:#211915}.st72,.st74,.st76,.st79{stroke-width:.0219}.st74,.st76,.st79{fill:#006f46;stroke-width:.232}.st76,.st79{fill:#0044ae}.st79{fill:#a07e00;stroke-width:.1508}
  </style>
  <path class="st0" d="M96.53 28.63h1.22v8.94h-1.31v-6.96l-2.79 3.46h-.24l-2.82-3.46v6.96h-1.3v-8.94h1.23l3.02 3.67 2.99-3.67zM99.71 28.63h1.3v8.94h-1.3v-8.94zM110.24 28.63h1.23v8.94h-1.12l-6.07-6.89v6.89h-1.22v-8.94h1.05l6.12 6.95.01-6.95zM113.43 28.63h1.3v8.94h-1.3v-8.94zM118.99 33.82l-.99-.59c-.62-.37-1.06-.74-1.32-1.1-.26-.36-.39-.78-.39-1.25 0-.7.25-1.28.74-1.72.5-.44 1.14-.66 1.93-.66.76 0 1.45.21 2.09.63v1.45c-.65-.62-1.36-.93-2.11-.93-.42 0-.77.1-1.05.29s-.41.44-.41.74c0 .27.1.52.3.75s.52.48.97.74l.99.58c1.11.65 1.66 1.48 1.66 2.49 0 .72-.24 1.3-.73 1.75s-1.12.67-1.9.67c-.9 0-1.71-.27-2.45-.81v-1.63c.7.88 1.51 1.31 2.44 1.31.41 0 .75-.11 1.02-.33s.41-.5.41-.84c0-.53-.4-1.05-1.2-1.54zM122.06 28.61h7.58v1.14h-3.16v7.82h-1.31v-7.82h-3.11v-1.14zM130.87 28.63h5.15v1.14h-3.85v2.73h3.72v1.15h-3.72v2.78h3.97v1.14h-5.27v-8.94zM137.57 37.57v-8.94h2.27c.92 0 1.65.22 2.19.67.54.45.81 1.05.81 1.82 0 .52-.13.97-.4 1.35s-.64.66-1.14.85c.29.19.57.44.85.77.28.32.67.89 1.17 1.7.32.51.57.89.76 1.15l.48.64h-1.55l-.4-.59a.884.884 0 0 0-.08-.11l-.25-.35-.4-.65-.43-.7a6.64 6.64 0 0 0-.74-.88c-.22-.22-.43-.37-.6-.47-.18-.1-.48-.14-.91-.14h-.34v3.89l-1.29-.01zm1.69-7.85h-.39v2.82h.49c.66 0 1.11-.06 1.35-.17.24-.11.44-.28.57-.5.14-.22.21-.48.21-.77 0-.28-.08-.54-.23-.77s-.37-.39-.64-.48-.73-.13-1.36-.13zM145.58 28.63h1.3v8.94h-1.3v-8.94zM153.35 28.5c1.4 0 2.57.44 3.5 1.31.93.88 1.4 1.97 1.4 3.29s-.47 2.41-1.41 3.27-2.13 1.3-3.56 1.3c-1.37 0-2.51-.43-3.42-1.3-.91-.86-1.37-1.95-1.37-3.25 0-1.34.46-2.44 1.38-3.32.91-.86 2.07-1.3 3.48-1.3zm.05 1.22c-1.04 0-1.89.32-2.56.96s-1 1.46-1 2.45c0 .96.34 1.77 1.01 2.41s1.51.96 2.52.96 1.86-.33 2.54-.98c.68-.65 1.02-1.47 1.02-2.44 0-.95-.34-1.75-1.02-2.39-.69-.65-1.53-.97-2.51-.97zM89.32 51.65v-8.93h3.06c1.23 0 2.21.18 2.93.55s1.29.9 1.72 1.61.64 1.48.64 2.32c0 .6-.12 1.17-.35 1.72-.23.55-.57 1.03-1 1.44-.44.43-.96.75-1.54.97-.34.13-.66.22-.94.27s-.83.07-1.64.07h-2.88v-.02zm2.93-7.79h-1.62v6.65h1.66c.65 0 1.15-.04 1.51-.13s.66-.2.9-.33.46-.3.66-.5c.64-.64.96-1.45.96-2.43 0-.96-.33-1.74-.99-2.35-.24-.23-.52-.41-.83-.56-.31-.15-.61-.24-.89-.29-.29-.04-.74-.06-1.36-.06zM99.29 42.72h5.15v1.14h-3.85v2.73h3.72v1.15h-3.72v2.78h3.97v1.14h-5.27v-8.94zM107.44 42.7h7.58v1.14h-3.16v7.82h-1.31v-7.82h-3.11V42.7zM116.29 51.66v-8.94h2.27c.92 0 1.65.22 2.19.67.54.45.81 1.05.81 1.82 0 .52-.13.97-.4 1.35s-.64.66-1.14.85c.29.19.57.44.85.77.28.32.67.89 1.17 1.7.32.51.57.89.76 1.15l.48.64h-1.55l-.4-.59a.884.884 0 0 0-.08-.11l-.25-.35-.4-.65-.43-.7a6.64 6.64 0 0 0-.74-.88c-.22-.22-.43-.37-.6-.47-.18-.1-.48-.14-.91-.14h-.34v3.89l-1.29-.01zm1.69-7.85h-.39v2.82h.49c.66 0 1.11-.06 1.35-.17.24-.11.44-.28.57-.5.14-.22.21-.48.21-.77 0-.28-.08-.54-.23-.77s-.37-.39-.64-.48-.72-.13-1.36-.13zM127.19 42.67h.91l4.07 9h-1.33l-1.21-2.65h-3.87l-1.13 2.65h-1.34l3.9-9zm1.91 5.2-1.46-3.24-1.36 3.24h2.82zM140.38 42.72h1.23v8.94h-1.12l-6.07-6.89v6.89h-1.22v-8.94h1.05l6.12 6.95v-6.95h.01zM145.8 47.91l-.99-.59c-.62-.37-1.06-.74-1.32-1.1-.26-.36-.39-.78-.39-1.25 0-.7.25-1.28.74-1.72.5-.44 1.14-.66 1.93-.66.76 0 1.45.21 2.09.63v1.45c-.65-.62-1.36-.93-2.11-.93-.42 0-.77.1-1.05.29s-.41.44-.41.74c0 .27.1.52.3.75s.52.48.97.74l.99.58c1.11.65 1.66 1.48 1.66 2.49 0 .72-.24 1.3-.73 1.75s-1.12.67-1.9.67c-.9 0-1.71-.27-2.45-.81v-1.63c.7.88 1.51 1.31 2.44 1.31.41 0 .75-.11 1.02-.33s.41-.5.41-.84c0-.53-.4-1.05-1.2-1.54zM149.58 51.66V42.7h2.88c.87 0 1.56.23 2.07.69s.77 1.08.77 1.86c0 .52-.13.98-.4 1.38-.26.4-.63.69-1.09.87-.46.18-1.12.27-1.98.27h-.96v3.88l-1.29.01zm2.65-7.82h-1.34v2.8h1.42c.53 0 .94-.12 1.22-.37.29-.25.43-.6.43-1.05 0-.92-.58-1.38-1.73-1.38zM160.89 42.59c1.4 0 2.57.44 3.5 1.31.93.88 1.4 1.97 1.4 3.29s-.47 2.41-1.41 3.27-2.13 1.3-3.56 1.3c-1.37 0-2.51-.43-3.42-1.3-.91-.86-1.37-1.95-1.37-3.25 0-1.34.46-2.44 1.38-3.32.92-.86 2.08-1.3 3.48-1.3zm.05 1.22c-1.04 0-1.89.32-2.56.96s-1 1.46-1 2.45c0 .96.34 1.77 1.01 2.41s1.51.96 2.52.96 1.86-.33 2.54-.98c.68-.65 1.02-1.47 1.02-2.44 0-.95-.34-1.75-1.02-2.39-.69-.65-1.52-.97-2.51-.97zM167.43 51.66v-8.94h2.27c.92 0 1.65.22 2.19.67.54.45.81 1.05.81 1.82 0 .52-.13.97-.4 1.35s-.64.66-1.14.85c.29.19.57.44.85.77.28.32.67.89 1.17 1.7.32.51.57.89.76 1.15l.48.64h-1.55l-.4-.59a.884.884 0 0 0-.08-.11l-.25-.35-.4-.65-.43-.7a6.64 6.64 0 0 0-.74-.88c-.22-.22-.43-.37-.6-.47-.18-.1-.48-.14-.91-.14h-.34v3.89l-1.29-.01zm1.69-7.85h-.39v2.82h.49c.66 0 1.11-.06 1.35-.17.24-.11.44-.28.57-.5.14-.22.21-.48.21-.77 0-.28-.08-.54-.23-.77s-.37-.39-.64-.48-.73-.13-1.36-.13zM173.62 42.7h7.58v1.14h-3.16v7.82h-1.31v-7.82h-3.11V42.7zM182.43 42.72h5.15v1.14h-3.85v2.73h3.72v1.15h-3.72v2.78h3.97v1.14h-5.27v-8.94zM191.33 47.91l-.99-.59c-.62-.37-1.06-.74-1.32-1.1-.26-.36-.39-.78-.39-1.25 0-.7.25-1.28.74-1.72.5-.44 1.14-.66 1.93-.66.76 0 1.45.21 2.09.63v1.45c-.65-.62-1.36-.93-2.11-.93-.42 0-.77.1-1.05.29s-.41.44-.41.74c0 .27.1.52.3.75s.52.48.97.74l.99.58c1.11.65 1.66 1.48 1.66 2.49 0 .72-.24 1.3-.73 1.75s-1.12.67-1.9.67c-.9 0-1.71-.27-2.45-.81v-1.63c.7.88 1.51 1.31 2.44 1.31.41 0 .75-.11 1.02-.33s.41-.5.41-.84c-.01-.53-.4-1.05-1.2-1.54zM194.82 53.21v-.24c.19-.18.33-.37.41-.55s.12-.44.14-.76c-.46-.13-.69-.41-.69-.84 0-.23.08-.43.24-.6s.35-.25.56-.25c.26 0 .48.12.65.35s.25.53.25.88c0 .47-.14.89-.42 1.25-.27.36-.65.61-1.14.76zM207.86 42.72h1.22v8.94h-1.31V44.7l-2.79 3.46h-.24l-2.82-3.46v6.96h-1.3v-8.94h1.23l3.02 3.67 2.99-3.67zM215.49 42.59c1.4 0 2.57.44 3.5 1.31.93.88 1.4 1.97 1.4 3.29s-.47 2.41-1.41 3.27-2.13 1.3-3.56 1.3c-1.37 0-2.51-.43-3.42-1.3-.91-.86-1.37-1.95-1.37-3.25 0-1.34.46-2.44 1.38-3.32.92-.86 2.08-1.3 3.48-1.3zm.05 1.22c-1.04 0-1.89.32-2.56.96s-1 1.46-1 2.45c0 .96.34 1.77 1.01 2.41s1.51.96 2.52.96 1.86-.33 2.54-.98c.68-.65 1.02-1.47 1.02-2.44 0-.95-.34-1.75-1.02-2.39-.69-.65-1.52-.97-2.51-.97zM227.27 42.72h1.29l-3.84 8.98h-.29l-3.91-8.98h1.31l2.73 6.28 2.71-6.28zM229.58 42.72h1.3v8.94h-1.3v-8.94zM232.89 42.72h1.3v7.78h4.09v1.17h-5.39v-8.95zM239.43 42.72h1.3v8.94h-1.3v-8.94zM242.75 51.65v-8.93h3.06c1.23 0 2.21.18 2.93.55.72.37 1.29.9 1.72 1.61s.64 1.48.64 2.32c0 .6-.12 1.17-.35 1.72-.23.55-.57 1.03-1 1.44-.44.43-.96.75-1.54.97-.34.13-.66.22-.94.27s-.83.07-1.64.07h-2.88v-.02zm2.93-7.79h-1.62v6.65h1.66c.65 0 1.15-.04 1.51-.13s.66-.2.9-.33.46-.3.66-.5c.64-.64.96-1.45.96-2.43 0-.96-.33-1.74-.99-2.35-.24-.23-.52-.41-.83-.56s-.61-.24-.89-.29c-.29-.04-.74-.06-1.36-.06zM254.99 42.67h.91l4.07 9h-1.33l-1.21-2.65h-3.87l-1.13 2.65h-1.34l3.9-9zm1.91 5.2-1.46-3.24-1.36 3.24h2.82zM260.98 51.65v-8.93h3.06c1.23 0 2.21.18 2.93.55s1.29.9 1.72 1.61.64 1.48.64 2.32c0 .6-.12 1.17-.35 1.72-.23.55-.57 1.03-1 1.44-.44.43-.96.75-1.54.97-.34.13-.66.22-.94.27s-.83.07-1.64.07h-2.88v-.02zm2.93-7.79h-1.62v6.65h1.66c.65 0 1.15-.04 1.51-.13.36-.09.66-.2.9-.33s.46-.3.66-.5c.64-.64.96-1.45.96-2.43 0-.96-.33-1.74-.99-2.35-.24-.23-.52-.41-.83-.56s-.61-.24-.89-.29c-.29-.04-.74-.06-1.36-.06zM94.77 56.81h1.58L93 61.02v4.73h-1.33v-4.73l-3.35-4.21h1.57l2.43 3.08 2.45-3.08zM102.8 56.76h.91l4.07 9h-1.33l-1.21-2.65h-3.87l-1.13 2.65H98.9l3.9-9zm1.91 5.2-1.46-3.24-1.36 3.24h2.82zM113.21 61.35h3.05v3.79c-1.12.48-2.23.72-3.33.72-1.5 0-2.7-.43-3.6-1.3-.9-.86-1.35-1.93-1.35-3.2 0-1.34.47-2.45 1.4-3.34s2.1-1.33 3.5-1.33c.51 0 1 .05 1.46.16s1.04.31 1.74.6v1.31c-1.08-.62-2.16-.93-3.22-.93-.99 0-1.83.33-2.51 1s-1.02 1.48-1.02 2.45c0 1.02.34 1.85 1.02 2.49.68.64 1.55.97 2.62.97.52 0 1.14-.12 1.86-.35l.12-.04v-1.86h-1.75l.01-1.14zM118.16 56.81h5.15v1.14h-3.85v2.73h3.72v1.15h-3.72v2.78h3.97v1.14h-5.27v-8.94zM132.02 56.81h1.23v8.94h-1.12l-6.07-6.89v6.89h-1.22v-8.94h1.05l6.12 6.95.01-6.95zM135.21 65.74v-8.93h3.06c1.23 0 2.21.18 2.93.55.72.37 1.29.9 1.72 1.61s.64 1.48.64 2.32c0 .6-.12 1.17-.35 1.72-.23.55-.57 1.03-1 1.44-.44.43-.96.75-1.54.97-.34.13-.66.22-.94.27s-.83.07-1.64.07h-2.88v-.02zm2.93-7.79h-1.62v6.65h1.66c.65 0 1.15-.04 1.51-.13s.66-.2.9-.33.46-.3.66-.5c.64-.64.96-1.45.96-2.43 0-.96-.33-1.74-.99-2.35-.24-.23-.52-.41-.83-.56s-.61-.24-.89-.29c-.29-.04-.74-.06-1.36-.06zM147.46 56.76h.91l4.07 9h-1.33l-1.21-2.65h-3.87l-1.13 2.65h-1.34l3.9-9zm1.9 5.2-1.46-3.24-1.36 3.24h2.82zM163.45 56.81h1.31v5.08c0 .69-.05 1.21-.15 1.56-.1.35-.23.64-.38.87-.15.23-.33.44-.55.62-.72.61-1.66.92-2.82.92-1.18 0-2.13-.3-2.85-.91-.22-.19-.4-.4-.55-.63-.15-.23-.27-.52-.37-.85-.1-.34-.15-.87-.15-1.59v-5.06h1.31v5.08c0 .84.1 1.43.29 1.75s.49.59.89.79c.4.2.87.3 1.41.3.77 0 1.4-.2 1.88-.6.26-.21.44-.46.55-.76.11-.29.17-.79.17-1.49v-5.08h.01zM166.59 65.75v-8.94h2.27c.92 0 1.65.22 2.19.67.54.45.81 1.05.81 1.82 0 .52-.13.97-.4 1.35s-.64.66-1.14.85c.29.19.57.44.85.77.28.32.67.89 1.17 1.7.32.51.57.89.76 1.15l.48.64h-1.55l-.4-.59a.884.884 0 0 0-.08-.11l-.25-.35-.4-.65-.43-.7a6.64 6.64 0 0 0-.74-.88c-.22-.22-.43-.37-.6-.47-.18-.1-.48-.14-.91-.14h-.34v3.89l-1.29-.01zm1.69-7.85h-.39v2.82h.49c.66 0 1.11-.06 1.35-.17.24-.11.44-.28.57-.5.14-.22.21-.48.21-.77 0-.28-.08-.54-.23-.77s-.37-.39-.64-.48-.72-.13-1.36-.13zM177.66 65.75h-3.07v-8.94h2.38c.75 0 1.33.1 1.75.3s.74.47.96.82.33.75.33 1.21c0 .88-.46 1.51-1.38 1.89.66.12 1.19.39 1.58.81.39.41.59.91.59 1.49 0 .46-.12.86-.36 1.22s-.59.65-1.05.88-1.03.32-1.73.32zm-.65-7.8h-1.12v2.69h.86c.69 0 1.19-.13 1.48-.39s.44-.6.44-1.01c0-.86-.56-1.29-1.66-1.29zm.09 3.83h-1.21v2.84h1.28c.71 0 1.19-.05 1.45-.16.25-.11.46-.28.61-.51s.23-.48.23-.74c0-.27-.08-.52-.24-.75s-.39-.4-.69-.51-.78-.17-1.43-.17zM185.22 56.76h.91l4.07 9h-1.33l-1.21-2.65h-3.87l-1.13 2.65h-1.34l3.9-9zm1.91 5.2-1.46-3.24-1.36 3.24h2.82zM198.41 56.81h1.23v8.94h-1.12l-6.07-6.89v6.89h-1.22v-8.94h1.05l6.12 6.95v-6.95h.01zM204.48 56.76h.91l4.07 9h-1.33l-1.21-2.65h-3.87l-1.13 2.65h-1.34l3.9-9zm1.91 5.2-1.46-3.24-1.36 3.24h2.82z"/>
  <g>
    <path class="st1" d="M6.06 27.84s-.19 0-.3-.06-.43-.38-.43-.38l-.26-.2-.24-.34s-.28-.47-.15-.83.35-.49.54-.6.6-.23.6-.23.32-.15.43-.17c.11-.02.5-.13.5-.13s.11-.06.22-.11c.11-.04.26-.04.35-.06.09-.02.3-.1.43-.1.2-.01.52.04.63.04s.47.02.63.02c.15 0 .69-.04.84-.04.15 0 .26-.02.43 0s.48.13.56.17c.09.04.6.23.8.3.19.06.67.15.88.26.22.11.35.29.45.43.11.15.13.31.17.42s.04.34 0 .44c-.04.11-.2.32-.2.32l-.24.4-.3.26s-.22.21-.39.19c-.17-.02-1.92-.34-3.04-.34s-2.91.34-2.91.34z"/>
    <path class="st2" d="M8.46 25.23c0-.55.24-.99.53-.99s.53.44.53.99-.24.99-.53.99c-.3 0-.53-.44-.53-.99z"/>
    <path class="st2" d="M8.75 25.23c0-.5.11-.91.24-.91s.24.41.24.91-.11.91-.24.91-.24-.41-.24-.91z"/>
    <path class="st3" d="M8.64 24.18c0-.19.16-.35.35-.35.2 0 .35.16.35.35s-.16.35-.35.35-.35-.15-.35-.35z"/>
    <path class="st4" d="M9.24 24.06v.23H8.7v-.23h.18v-.52h-.24v-.23h.24v-.23h.23v.23h.23v.23h-.23v.52z"/>
    <defs>
      <circle id="SVGID_1_" cx="8.99" cy="24.18" r=".35"/>
    </defs>
    <clipPath id="SVGID_00000088131327946245245320000006376724702422033084_">
      <use xlink:href="#SVGID_1_" style="overflow:visible"/>
    </clipPath>
    <path style="clip-path:url(#SVGID_00000088131327946245245320000006376724702422033084_);fill-rule:evenodd;clip-rule:evenodd;fill:#a07e00;stroke:#211915;stroke-width:.1328;stroke-miterlimit:3.8637" d="M9.49 24.06v.23h-.97v-.23h.36v-.52h-.24v-.23h.24v-.23h.23v.23h.23v.23h-.23v.52z"/>
    <path class="st6" d="M8.64 24.18c0-.19.16-.35.35-.35.2 0 .35.16.35.35s-.16.35-.35.35-.35-.15-.35-.35z"/>
    <path class="st6" d="M8.64 24.18c0-.19.16-.35.35-.35.2 0 .35.16.35.35s-.16.35-.35.35-.35-.15-.35-.35z"/>
    <path class="st7" d="M9.09 23.85c.15.04.25.18.25.33 0 .19-.16.35-.35.35-.19 0-.35-.16-.35-.35 0-.16.11-.3.26-.34"/>
    <path class="st2" d="M8.99 27.77H7.16l-.04-.47-.09-.49-.09-.61c-.51-.7-.97-1.15-1.13-1.05.04-.13.08-.22.18-.28.45-.28 1.38.39 2.07 1.49l.18.3h1.51c.05-.1.11-.2.18-.3.7-1.1 1.62-1.76 2.07-1.49.1.06.14.16.18.28-.16-.1-.62.36-1.13 1.05l-.09.61-.09.49-.04.47H8.99z"/>
    <path class="st7" d="M5.89 25.14c.34-.21 1.15.45 1.81 1.49M12.11 25.14c-.34-.21-1.15.45-1.81 1.49"/>
    <path class="st2" d="M6.28 28.64c-.08-.23-.22-.43-.22-.43.74-.23 1.78-.37 2.93-.37s2.19.14 2.94.37c0 0-.08.15-.2.36-.06.12-.15.32-.14.32-.67-.22-1.54-.33-2.6-.33s-2.09.14-2.62.34c.01.01-.04-.12-.09-.26z"/>
    <path class="st2" d="M8.99 29.62c.93 0 1.95-.15 2.33-.25.25-.08.4-.19.37-.33-.01-.06-.07-.12-.14-.15-.55-.19-1.55-.32-2.56-.32s-2.01.13-2.56.32c-.07.03-.13.09-.14.15-.03.14.12.26.37.33.38.1 1.4.25 2.33.25zM11.97 27.77l-.23-.21s-.22.14-.49.1c-.27-.04-.36-.38-.36-.38s-.3.27-.55.24c-.25-.02-.41-.24-.41-.24s-.27.2-.51.18-.46-.33-.46-.33-.24.32-.48.34-.43-.21-.43-.21-.11.23-.41.29c-.3.05-.56-.24-.56-.24s-.17.29-.38.36c-.2.07-.47-.11-.47-.11s-.04.11-.08.17c-.03.06-.12.07-.12.07l.07.19c.74-.22 1.74-.36 2.88-.36s2.17.14 2.91.36l.08-.22z"/>
    <path class="st2" d="m9 26.75.11.02c-.02.05-.02.09-.02.15 0 .23.19.42.43.42.19 0 .35-.12.4-.29.01 0 .04-.15.06-.15s.01.16.02.16c.03.21.21.35.42.35.23 0 .42-.19.42-.42v-.05l.13-.14.07.17c-.03.06-.04.12-.04.19 0 .22.18.4.41.4.14 0 .27-.07.34-.18l.09-.11v.14c0 .14.06.26.19.29 0 0 .15.01.35-.15.2-.16.31-.3.31-.3l.01.16s-.2.33-.37.44c-.1.06-.24.12-.36.1s-.21-.12-.26-.24a.62.62 0 0 1-.3.09c-.24 0-.46-.14-.54-.34a.59.59 0 0 1-.44.2c-.19 0-.37-.09-.48-.23-.11.1-.26.17-.42.17-.21 0-.4-.11-.51-.27-.11.16-.3.27-.51.27a.59.59 0 0 1-.42-.17c-.11.14-.29.23-.48.23a.59.59 0 0 1-.44-.2c-.09.21-.3.34-.54.34-.11 0-.22-.03-.3-.09-.05.12-.13.22-.26.24-.12.02-.26-.04-.36-.1-.18-.11-.39-.44-.39-.44l.03-.16s.11.13.31.3c.2.16.35.15.35.15.13-.02.19-.15.19-.29v-.14l.09.11a.41.41 0 0 0 .75-.22c0-.07-.01-.13-.04-.18l.07-.17.13.14V27c0 .23.19.42.42.42.21 0 .39-.14.42-.35 0 0 0-.16.02-.16s.05.15.06.15c.06.17.22.29.4.29.23 0 .43-.19.43-.42 0-.05 0-.1-.02-.15l.07-.03z"/>
    <path class="st2" d="M8.99 27.83c-1.15 0-2.18.14-2.93.37-.05.02-.11-.02-.13-.07s.02-.11.07-.13c.75-.24 1.81-.39 2.99-.39s2.24.15 2.99.39c.05.02.09.08.07.13s-.08.09-.13.07c-.74-.22-1.78-.36-2.93-.37z"/>
    <path class="st8" d="M7.88 28.26c0-.09.07-.16.17-.16.09 0 .17.07.17.16s-.07.16-.17.16-.17-.07-.17-.16z"/>
    <path class="st1" d="M9.01 28.33h-.38c-.07 0-.13-.05-.13-.12 0-.07.06-.12.12-.12h.75c.07 0 .12.05.12.12 0 .07-.06.12-.13.12h-.35z"/>
    <path class="st9" d="m7.15 28.46-.26.04c-.07.01-.13-.03-.14-.1-.01-.07.03-.13.1-.14l.27-.04.27-.04c.07-.01.13.03.14.1.01.07-.04.13-.1.14l-.28.04z"/>
    <path class="st1" d="m6.08 28.66.12-.2.25.05-.15.22z"/>
    <path class="st8" d="M9.77 28.26c0-.09.07-.16.17-.16s.17.07.17.16-.08.16-.17.16-.17-.07-.17-.16z"/>
    <path class="st9" d="m10.83 28.46.27.04c.07.01.13-.03.14-.1s-.04-.13-.1-.14l-.27-.04-.27-.04c-.07-.01-.13.03-.14.1s.04.13.1.14l.27.04z"/>
    <path class="st1" d="m11.88 28.67-.09-.21-.26.02.12.24z"/>
    <path id="SVGID_00000062878299376996267970000013993623661331075753_" class="st10" d="M8.99 29.4c-.93 0-1.77-.09-2.41-.26.64-.17 1.48-.28 2.41-.28s1.77.11 2.41.28c-.64.17-1.48.25-2.41.26z"/>
    <defs>
      <path id="SVGID_00000168083781509989845400000018078709565277482917_" d="M8.99 29.4c-.93 0-1.77-.09-2.41-.26.64-.17 1.48-.28 2.41-.28s1.77.11 2.41.28c-.64.17-1.48.25-2.41.26z"/>
    </defs>
    <clipPath id="SVGID_00000018237211550049788170000011155249226331381434_">
      <use xlink:href="#SVGID_00000168083781509989845400000018078709565277482917_" style="overflow:visible"/>
    </clipPath>
    <g style="clip-path:url(#SVGID_00000018237211550049788170000011155249226331381434_)">
      <path class="st7" d="M9.74 28.35v1.5"/>
      <path class="st12" d="M9.36 28.35v1.5"/>
      <path class="st13" d="M9.03 28.35v1.5M8.73 28.35v1.5M8.44 28.35v1.5M8.2 28.35v1.5"/>
      <path class="st14" d="M7.95 28.35v1.5"/>
      <path class="st15" d="M7.7 28.35v1.5M7.46 28.35v1.5"/>
      <path class="st16" d="M7.2 28.35v1.5"/>
      <path class="st17" d="M6.93 28.35v1.5"/>
    </g>
    <path id="SVGID_00000125570286504045673510000001627451072739102111_" class="st7" d="M8.99 29.4c-.93 0-1.77-.09-2.41-.26.64-.17 1.48-.28 2.41-.28s1.77.11 2.41.28c-.64.17-1.48.25-2.41.26z"/>
    <path class="st2" d="M11.92 27.3c.02-.07 0-.15-.05-.17s-.11.03-.14.1c-.02.07 0 .15.05.17s.11-.03.14-.1zM10.07 26.93c.01-.08-.03-.15-.08-.15-.05-.01-.11.05-.12.13s.03.15.08.15c.06 0 .11-.06.12-.13zM7.92 26.93c-.01-.08.03-.15.08-.16s.11.05.12.13-.03.15-.08.15c-.06.01-.11-.05-.12-.12zM6.07 27.3c-.02-.07 0-.15.05-.17s.11.03.14.1c.02.07 0 .15-.05.17s-.11-.03-.14-.1zM8.99 25.82l-.33.2.25.55.08.06.08-.06.25-.55z"/>
    <path class="st2" d="m8.27 26.64.15.23.51-.16.06-.08-.06-.07-.51-.16zM9.71 26.64l-.15.23-.51-.16-.05-.08.05-.07.51-.16zM6.86 26.06l-.26.25.33.45.09.04.06-.07.12-.54z"/>
    <path class="st2" d="m6.32 26.96.19.19.47-.26.04-.08-.07-.07-.54-.04zM7.73 26.67l-.1.25-.54-.05-.07-.07.04-.08.47-.26zM5.8 27.03l-.04.27-.53.06-.08-.05.01-.09.41-.35z"/>
    <path class="st2" d="M6.83 26.81c0-.1.08-.18.19-.18.1 0 .19.08.19.18s-.08.19-.19.19c-.1-.01-.19-.09-.19-.19zM11.13 26.06l.26.25-.33.45-.09.04-.06-.07-.12-.54z"/>
    <path class="st2" d="m11.67 26.96-.2.19-.46-.26-.04-.08.07-.07.53-.04zM10.26 26.67l.1.25.53-.05.07-.07-.04-.08-.46-.26zM12.11 27.03l.04.27.54.06.08-.05-.02-.09-.4-.35zM8.81 26.63c0-.1.08-.18.19-.18.1 0 .19.08.19.18s-.08.18-.19.18c-.11.01-.19-.08-.19-.18z"/>
    <path class="st2" d="M10.78 26.81c0-.1.08-.18.19-.18.1 0 .19.08.19.18s-.08.19-.19.19c-.1-.01-.19-.09-.19-.19z"/>
    <path class="st18" d="M5.08 27.34c0 .01-.14-.19-.25-.29-.07-.07-.26-.13-.26-.13 0-.03.11-.11.22-.11.07 0 .13.03.17.08l.01-.08s.09.02.14.13c.04.11.01.28.01.28s0 .09-.04.12z"/>
    <path class="st2" d="M5.09 27.25c.04-.05.14-.04.2.02.07.06.09.15.04.2-.04.05-.14.04-.2-.02-.07-.07-.09-.15-.04-.2z"/>
    <path class="st18" d="M12.83 27.34c0 .01.14-.19.25-.29.08-.07.26-.13.26-.13 0-.03-.11-.11-.22-.11-.07 0-.13.03-.17.08l-.02-.08s-.09.02-.14.13c-.04.11-.01.28-.01.28s.02.09.05.12z"/>
    <path class="st2" d="M12.84 27.25c-.04-.05-.14-.04-.2.02-.07.06-.09.15-.04.2.04.05.14.04.2-.02.06-.07.08-.15.04-.2z"/>
    <path class="st19" d="M4.76 29.54h8.51v2.32H4.76zM5.65 33.41a.38.38 0 0 1 .16-.03h6.37c.06 0 .12.01.17.03-.22-.08-.38-.28-.38-.52s.17-.46.39-.53c-.05.02-.13.03-.19.03H5.81c-.06 0-.13 0-.18-.02l.04.01c.23.07.36.28.36.52-.01.21-.15.43-.38.51z"/>
    <path class="st19" d="M5.81 33.38h6.37c.22 0 .39.14.39.31 0 .17-.17.31-.39.31H5.81c-.22 0-.39-.14-.39-.31 0-.17.17-.31.39-.31zM5.81 31.86h6.38c.22 0 .39.12.39.26 0 .15-.17.26-.39.26H5.81c-.22 0-.39-.12-.39-.26s.17-.26.39-.26z"/>
    <path class="st20" d="M14.95 70.92c-.59 0-1.11-.13-1.5-.34-.38-.2-.9-.33-1.48-.33-.57 0-1.11.13-1.49.33-.38.21-.92.34-1.5.34-.59 0-1.11-.14-1.5-.36-.38-.2-.89-.32-1.45-.32-.58 0-1.09.12-1.47.32-.39.21-.92.35-1.51.35v.96c.59 0 1.12-.14 1.51-.35.38-.21.9-.32 1.47-.32.56 0 1.07.12 1.45.32.39.21.91.36 1.5.36.58 0 1.11-.13 1.5-.34.38-.21.92-.33 1.49-.33s1.09.13 1.48.33c.39.21.9.34 1.49.34l.01-.96z"/>
    <path class="st21" d="M14.95 71.87c-.59 0-1.11-.13-1.5-.34-.38-.2-.9-.33-1.48-.33-.57 0-1.11.13-1.49.33-.38.21-.92.34-1.5.34-.59 0-1.11-.14-1.5-.36-.38-.2-.89-.32-1.45-.32-.58 0-1.09.12-1.47.32-.39.21-.92.35-1.51.35v.96c.59 0 1.12-.14 1.51-.35.38-.21.9-.32 1.47-.32.56 0 1.07.12 1.45.31.39.21.91.36 1.5.36.58 0 1.11-.13 1.5-.34.38-.21.92-.33 1.49-.33s1.09.13 1.48.33c.39.21.9.34 1.49.34l.01-.95z"/>
    <path class="st20" d="M14.95 72.83c-.59 0-1.11-.13-1.5-.34-.38-.2-.9-.33-1.48-.33-.57 0-1.11.13-1.49.33-.38.21-.92.34-1.5.34-.59 0-1.11-.14-1.5-.36-.38-.2-.89-.31-1.45-.31-.58 0-1.09.12-1.47.32-.39.21-.92.35-1.51.35v.96c.59 0 1.12-.14 1.51-.35.38-.21.9-.32 1.47-.32.56 0 1.07.12 1.45.31.39.21.91.36 1.5.36.58 0 1.11-.13 1.5-.34.38-.21.92-.33 1.49-.33s1.09.13 1.48.33c.39.21.9.34 1.49.34l.01-.96z"/>
    <path class="st21" d="M14.94 74.74c-.59 0-1.11-.13-1.49-.34-.38-.2-.9-.33-1.48-.33-.57 0-1.11.13-1.49.33-.38.21-.92.34-1.5.34-.59 0-1.11-.14-1.5-.36-.38-.2-.89-.32-1.45-.32-.58 0-1.09.12-1.47.32-.39.21-.92.35-1.51.35v-.95c.59 0 1.12-.14 1.51-.35.38-.21.9-.32 1.47-.32.56 0 1.07.12 1.45.31.39.21.91.36 1.5.36.58 0 1.11-.13 1.5-.34.38-.21.92-.33 1.49-.33s1.09.13 1.48.33c.39.21.91.34 1.5.34l-.01.96z"/>
    <path class="st20" d="M14.94 75.7c-.59 0-1.11-.13-1.49-.34-.38-.2-.9-.33-1.48-.33-.57 0-1.11.13-1.49.33-.38.21-.92.34-1.5.34-.59 0-1.11-.14-1.5-.36-.38-.2-.89-.31-1.45-.31-.58 0-1.09.12-1.47.32-.39.21-.92.35-1.51.35v-.95c.59 0 1.12-.15 1.51-.36.38-.21.9-.32 1.47-.32.56 0 1.07.12 1.45.32.39.21.91.36 1.5.36.58 0 1.11-.13 1.5-.34.38-.21.92-.33 1.49-.33s1.09.13 1.48.33c.39.21.91.34 1.5.34l-.01.95z"/>
    <path class="st19" d="M5.65 66.98c.02.08.05.16.05.25 0 .58-.48 1.05-1.07 1.05h8.76c-.59 0-1.07-.46-1.07-1.05 0-.08.02-.17.03-.25-.05.02-.11.02-.17.02H5.81c-.05.01-.11 0-.16-.02z"/>
    <path class="st19" d="M5.81 66.38h6.37c.22 0 .39.14.39.31 0 .17-.17.31-.39.31H5.81c-.22 0-.39-.14-.39-.31 0-.17.17-.31.39-.31zM4.64 68.28h8.73v2.31H4.64z"/>
    <path class="st22" d="M3.96 58.18c-.87.52-1.45 1.05-1.36 1.32.05.25.32.43.71.7.62.45.99 1.25.7 1.62.51-.43.83-1.07.83-1.78a2.3 2.3 0 0 0-.88-1.86z"/>
    <path id="SVGID_00000045582177993546286210000013718096239286027689_" class="st23" d="M5.89 34.37h6.21v31.64H5.89z"/>
    <defs>
      <path id="SVGID_00000007392488686803039310000018248835429349921695_" d="M5.89 34.37h6.21v31.64H5.89z"/>
    </defs>
    <clipPath id="SVGID_00000154423187598787144600000008085685574094121096_">
      <use xlink:href="#SVGID_00000007392488686803039310000018248835429349921695_" style="overflow:visible"/>
    </clipPath>
    <path style="clip-path:url(#SVGID_00000154423187598787144600000008085685574094121096_);fill:none;stroke:#211915;stroke-width:.174;stroke-miterlimit:3.8637" d="M10.37 33.59v33.33"/>
    <defs>
      <path id="SVGID_00000146475156959600123320000016535599156749767847_" d="M5.89 34.37h6.21v31.64H5.89z"/>
    </defs>
    <clipPath id="SVGID_00000171679324835534947170000000480429658061904554_">
      <use xlink:href="#SVGID_00000146475156959600123320000016535599156749767847_" style="overflow:visible"/>
    </clipPath>
    <path style="clip-path:url(#SVGID_00000171679324835534947170000000480429658061904554_);fill:none;stroke:#211915;stroke-width:.174;stroke-miterlimit:3.8637" d="M11.07 33.59v33.33"/>
    <path id="SVGID_00000056393087978619580840000000249123611748239536_" class="st13" d="M5.89 34.37h6.21v31.64H5.89z"/>
    <path class="st22" d="M18.43 46.2c-1.36-.58-3.66-1.01-6.3-1.11-.91.01-1.93.1-2.97.28-3.71.64-6.54 2.19-6.31 3.44 0 .02.01.08.02.11 0 0-1.39-3.26-1.41-3.39-.25-1.4 2.89-3.11 7.01-3.82 1.29-.22 2.55-.31 3.65-.3 2.64 0 4.93.35 6.31.88v3.91z"/>
    <path class="st22" d="M5.88 50.18c-1.72-.13-2.9-.61-3.03-1.36-.11-.6.48-1.26 1.51-1.86.46.05.99.12 1.53.12l-.01 3.1zM12.11 47.76c1.07.17 1.88.45 2.29.79l.04.07c.19.41-.75 1.28-2.33 2.25v-3.11z"/>
    <path class="st22" d="M2.03 56.28c-.16-.51 1.51-1.53 3.89-2.44 1.08-.4 1.98-.83 3.09-1.34 3.29-1.51 5.73-3.25 5.43-3.89l-.03-.07c.17.15.45 3.27.45 3.27.3.58-1.93 2.3-4.96 3.81-.97.48-3.02 1.27-3.99 1.62-1.73.63-3.45 1.8-3.29 2.24l-.59-3.2z"/>
    <g>
      <path class="st3" d="M5.41 44.69c.76-.29 1.25-.63 1.01-1.25-.15-.39-.55-.47-1.13-.25l-1.04.39.93 2.4c.1-.05.2-.1.31-.14.1-.04.21-.07.32-.1l-.4-1.05zm-.45-1.15.26-.1c.22-.08.46.04.57.32.08.21.06.45-.19.62-.08.05-.18.09-.27.13l-.37-.97zM7.84 42.53l-.33.09c-.11.02-.22.04-.34.05l.54 2.49 1.67-.35-.06-.15c-.01-.05-.01-.11-.01-.16-.29.09-.62.18-1 .26l-.47-2.23zM11.19 44.68c.32-.9.7-1.77 1.07-2.65l-.21.03c-.07 0-.14.01-.21 0-.2.64-.45 1.27-.71 1.91-.31-.6-.66-1.19-.93-1.79-.13.02-.26.04-.39.05s-.27.01-.4.01c.48.82.95 1.63 1.39 2.48.06-.01.12-.03.19-.03.07-.02.13-.01.2-.01zM14.69 42.77c.06-.12.12-.24.18-.35-.09-.09-.37-.22-.69-.25-.68-.07-1.07.25-1.12.67-.1.9 1.27.82 1.2 1.42-.03.26-.29.36-.57.33-.31-.03-.54-.21-.58-.47l-.09-.01c-.04.16-.11.31-.18.46.2.13.46.21.71.24.7.07 1.23-.22 1.28-.7.09-.85-1.28-.9-1.23-1.4.02-.21.18-.35.53-.31.26.03.41.17.48.38l.08-.01z"/>
    </g>
    <g>
      <path d="M65.94 27.12s-.28.31-.49.35c-.2.04-.45-.2-.45-.2s-.18.2-.41.26c-.23.05-.54-.27-.54-.27s-.22.32-.41.39-.43-.1-.43-.1-.09.16-.25.24c-.07.04-.18-.02-.18-.02l-.23-.15-.26-.29-.24-.1s-.11-.36-.12-.43c-.01-.06-.03-.22-.03-.22-.05-.26.33-.56.88-.69.31-.07.59-.07.79 0 .22-.19.68-.33 1.22-.33.49 0 .92.11 1.16.28.24-.17.67-.28 1.16-.28.54 0 1 .13 1.22.33.2-.07.47-.07.79 0 .55.13.93.43.88.69 0 0-.02.16-.03.22s-.12.43-.12.43l-.24.1-.26.29-.23.15s-.11.06-.18.02c-.16-.09-.25-.24-.25-.24s-.24.17-.43.1-.41-.39-.41-.39-.31.32-.54.27-.41-.26-.41-.26-.26.23-.46.19c-.22-.04-.5-.34-.5-.34z" style="fill-rule:evenodd;clip-rule:evenodd;fill:#b60027;stroke:#211915;stroke-width:.1206;stroke-miterlimit:3.8637"/>
      <path class="st2" d="M65.41 25.44c0-.43.24-.78.53-.78s.53.35.53.78-.24.78-.53.78c-.29 0-.53-.35-.53-.78z"/>
      <path class="st2" d="M65.7 25.44c0-.4.11-.72.24-.72s.24.32.24.72-.11.72-.24.72-.24-.33-.24-.72zM63.23 28.64c-.08-.23-.22-.43-.22-.43.74-.23 1.78-.37 2.93-.37 1.15 0 2.19.14 2.94.37 0 0-.08.15-.2.36-.06.12-.15.32-.14.32-.67-.22-1.54-.33-2.6-.33s-2.09.14-2.62.34c.01.01-.04-.12-.09-.26z"/>
      <path class="st2" d="M65.94 29.62c.93 0 1.95-.15 2.33-.25.25-.08.4-.19.37-.33-.01-.06-.07-.12-.14-.15-.55-.19-1.55-.32-2.56-.32s-2.01.13-2.57.32c-.07.03-.13.09-.14.15-.03.14.12.26.37.33.39.1 1.41.25 2.34.25z"/>
      <path class="st27" d="M68.19 25.79c0-.09.08-.17.17-.17.1 0 .17.08.17.17s-.08.17-.17.17c-.09 0-.17-.08-.17-.17z"/>
      <path class="st28" d="M68.1 25.19c0-.09.08-.17.17-.17.1 0 .17.08.17.17s-.08.17-.17.17c-.1 0-.17-.08-.17-.17zM67.66 24.82c0-.09.08-.17.17-.17.1 0 .17.08.17.17s-.08.17-.17.17c-.09 0-.17-.08-.17-.17zM67.12 24.64c0-.09.08-.17.17-.17.1 0 .17.08.17.17s-.08.17-.17.17c-.09 0-.17-.08-.17-.17zM66.57 24.66c0-.09.08-.17.17-.17s.17.08.17.17-.08.17-.17.17-.17-.08-.17-.17z"/>
      <path class="st29" d="M69.9 26.94c.05-.13.08-.28.08-.43 0-.63-.48-1.14-1.08-1.14-.19 0-.37.05-.53.14"/>
      <path class="st7" d="M67.98 26.14c.05-.1.09-.23.09-.35 0-.46-.45-.82-1.01-.82-.24 0-.45.07-.63.18"/>
      <path class="st28" d="M70.05 26.42c0-.09.08-.17.17-.17s.17.08.17.17-.08.17-.17.17c-.09 0-.17-.07-.17-.17zM69.98 25.8c0-.09.08-.17.17-.17s.17.08.17.17-.08.17-.17.17-.17-.08-.17-.17zM69.6 25.32c0-.09.08-.17.17-.17s.17.08.17.17-.08.17-.17.17-.17-.08-.17-.17zM69.08 25.06c0-.09.08-.17.17-.17s.17.08.17.17-.08.17-.17.17-.17-.07-.17-.17zM68.53 25.08c0-.09.08-.17.17-.17s.17.08.17.17-.08.17-.17.17-.17-.07-.17-.17z"/>
      <path class="st2" d="m68.92 27.77-.23-.21s-.22.14-.49.1c-.27-.04-.36-.38-.36-.38s-.3.27-.55.24-.41-.24-.41-.24-.27.2-.51.18c-.24-.02-.46-.33-.46-.33s-.24.32-.47.34c-.24.02-.43-.21-.43-.21s-.11.23-.41.29c-.3.05-.56-.24-.56-.24s-.17.29-.38.36-.48-.11-.48-.11-.04.11-.08.17c-.02.06-.1.07-.1.07l.07.19c.74-.22 1.74-.36 2.88-.36s2.17.14 2.91.36l.06-.22z"/>
      <path class="st27" d="M63.32 25.79c0-.09.08-.17.17-.17s.17.08.17.17-.08.17-.17.17-.17-.08-.17-.17z"/>
      <path class="st28" d="M63.42 25.19c0-.09.08-.17.17-.17.1 0 .17.08.17.17s-.08.17-.17.17-.17-.08-.17-.17zM63.85 24.82c0-.09.08-.17.17-.17.1 0 .17.08.17.17s-.08.17-.17.17-.17-.08-.17-.17zM64.39 24.64c0-.09.08-.17.17-.17s.17.08.17.17-.08.17-.17.17-.17-.08-.17-.17zM64.94 24.66c0-.09.08-.17.17-.17.1 0 .17.08.17.17s-.08.17-.17.17c-.09 0-.17-.08-.17-.17z"/>
      <path class="st29" d="M61.96 26.94c-.05-.13-.08-.28-.08-.43 0-.63.48-1.14 1.08-1.14.19 0 .37.05.53.14"/>
      <path class="st7" d="M63.89 26.13a.65.65 0 0 1-.11-.33c0-.46.45-.82 1.01-.82.24 0 .45.07.63.18"/>
      <path class="st28" d="M61.47 26.42c0-.09.08-.17.17-.17.1 0 .17.08.17.17s-.08.17-.17.17c-.1 0-.17-.07-.17-.17zM61.53 25.8c0-.09.08-.17.17-.17.1 0 .17.08.17.17s-.08.17-.17.17-.17-.08-.17-.17zM61.92 25.32c0-.09.08-.17.17-.17.1 0 .17.08.17.17s-.08.17-.17.17-.17-.08-.17-.17zM62.44 25.06c0-.09.08-.17.17-.17.1 0 .17.08.17.17s-.08.17-.17.17c-.1 0-.17-.07-.17-.17zM62.99 25.08c0-.09.08-.17.17-.17.1 0 .17.08.17.17s-.08.17-.17.17c-.1 0-.17-.07-.17-.17z"/>
      <path class="st2" d="m65.95 26.75.11.02c-.02.05-.02.09-.02.15 0 .23.19.42.42.42.19 0 .35-.12.41-.29.01 0 .04-.15.06-.15.01 0 .01.16.02.16.03.21.21.35.42.35.23 0 .42-.19.42-.42v-.05l.13-.14.07.17c-.03.05-.04.12-.04.18 0 .22.18.4.41.4.14 0 .27-.07.34-.18l.08-.11v.14c0 .14.06.26.19.29 0 0 .15.01.35-.15s.31-.3.31-.3l.01.16s-.2.33-.37.44c-.1.06-.25.12-.36.1-.12-.02-.21-.12-.26-.24a.62.62 0 0 1-.3.09c-.24 0-.46-.14-.54-.34-.11.12-.27.2-.44.2-.19 0-.37-.09-.48-.23-.11.1-.26.17-.42.17-.21 0-.4-.11-.51-.27-.11.16-.3.27-.51.27a.59.59 0 0 1-.42-.17c-.11.14-.29.23-.48.23a.59.59 0 0 1-.44-.2c-.09.21-.3.34-.54.34-.11 0-.22-.03-.3-.09-.05.12-.13.22-.26.24-.12.02-.27-.04-.36-.1-.18-.11-.39-.44-.39-.44l.03-.16s.11.13.31.3c.2.16.35.15.35.15.13-.02.19-.15.19-.29v-.14l.08.11a.41.41 0 0 0 .75-.22c0-.07-.01-.13-.04-.18l.07-.17.13.14v.05c0 .23.19.42.42.42.21 0 .4-.14.42-.35.01 0 0-.16.02-.16s.05.15.06.15c.06.17.22.29.41.29.24 0 .42-.19.42-.42 0-.05 0-.1-.02-.15l.09-.02z"/>
      <path class="st2" d="M65.94 27.83c-1.15 0-2.18.14-2.93.37-.05.02-.11-.02-.13-.07s.02-.11.07-.13c.75-.24 1.81-.39 2.99-.39s2.24.15 2.99.39c.05.02.09.08.07.13s-.08.09-.13.07c-.74-.22-1.78-.36-2.93-.37z"/>
      <path class="st8" d="M64.83 28.26c0-.09.07-.16.17-.16s.17.07.17.16-.07.16-.17.16-.17-.07-.17-.16z"/>
      <path class="st1" d="M65.96 28.33h-.37c-.07 0-.13-.05-.13-.12 0-.07.06-.12.12-.12h.75c.07 0 .12.05.12.12 0 .07-.06.12-.13.12h-.36z"/>
      <path class="st9" d="m64.1 28.46-.27.04c-.07.01-.13-.03-.14-.1s.04-.13.1-.14l.27-.04.27-.04c.07-.01.13.03.14.1s-.04.13-.11.14l-.26.04z"/>
      <path class="st1" d="m63.03 28.66.12-.2.25.05-.15.22z"/>
      <path class="st8" d="M66.72 28.26c0-.09.07-.16.17-.16.09 0 .17.07.17.16s-.07.16-.17.16c-.09 0-.17-.07-.17-.16z"/>
      <path class="st9" d="m67.78 28.46.27.04c.07.01.13-.03.14-.1s-.04-.13-.1-.14l-.27-.04-.27-.04c-.07-.01-.13.03-.14.1s.04.13.1.14l.27.04z"/>
      <path class="st1" d="m68.83 28.67-.09-.21-.26.02.12.24z"/>
      <g>
        <path id="SVGID_00000042016807620774481830000001489642461354110139_" class="st10" d="M65.94 29.4c-.93 0-1.77-.09-2.41-.26.64-.17 1.48-.28 2.41-.28s1.77.11 2.41.28c-.64.17-1.48.25-2.41.26z"/>
        <defs>
          <path id="SVGID_00000078723135175681318030000007436191324318111149_" d="M65.94 29.4c-.93 0-1.77-.09-2.41-.26.64-.17 1.48-.28 2.41-.28s1.77.11 2.41.28c-.64.17-1.48.25-2.41.26z"/>
        </defs>
        <clipPath id="SVGID_00000176744979114012069020000000836652149110512557_">
          <use xlink:href="#SVGID_00000078723135175681318030000007436191324318111149_" style="overflow:visible"/>
        </clipPath>
        <g style="clip-path:url(#SVGID_00000176744979114012069020000000836652149110512557_)">
          <path class="st7" d="M66.69 28.35v1.5"/>
          <path class="st12" d="M66.31 28.35v1.5"/>
          <path class="st13" d="M65.99 28.35v1.5M65.68 28.35v1.5M65.39 28.35v1.5M65.15 28.35v1.5"/>
          <path class="st14" d="M64.9 28.35v1.5"/>
          <path class="st15" d="M64.65 28.35v1.5M64.41 28.35v1.5"/>
          <path class="st16" d="M64.16 28.35v1.5"/>
          <path class="st17" d="M63.88 28.35v1.5"/>
        </g>
        <g>
          <path id="SVGID_00000005233449933884942060000005456619804673370010_" class="st7" d="M65.94 29.4c-.93 0-1.77-.09-2.41-.26.64-.17 1.48-.28 2.41-.28s1.77.11 2.41.28c-.64.17-1.48.25-2.41.26z"/>
        </g>
      </g>
      <path class="st2" d="M68.87 27.3c.02-.07 0-.15-.05-.17s-.11.03-.14.1c-.02.07 0 .15.05.17.05.02.11-.03.14-.1zM67.02 26.93c.01-.08-.03-.15-.08-.15-.05-.01-.11.05-.12.13s.03.15.08.15c.06 0 .11-.06.12-.13zM64.87 26.93c-.01-.08.03-.15.08-.15.05-.01.11.05.12.13s-.03.15-.08.15c-.06 0-.11-.06-.12-.13zM63.02 27.3c-.02-.07 0-.15.05-.17s.11.03.14.1c.02.07 0 .15-.05.17s-.11-.03-.14-.1z"/>
      <g>
        <path class="st2" d="m65.94 25.82-.33.2.24.55.09.06.08-.06.25-.55z"/>
        <path class="st2" d="m65.22 26.64.15.23.51-.16.06-.08-.06-.07-.51-.16zM66.66 26.64l-.15.23-.51-.16-.05-.08.05-.07.51-.16z"/>
      </g>
      <g>
        <path class="st2" d="m63.81 26.06-.26.25.33.45.09.04.06-.07.12-.54z"/>
        <path class="st2" d="m63.27 26.96.19.19.47-.26.04-.08-.07-.07-.54-.04zM64.68 26.67l-.1.25-.54-.05-.07-.07.04-.08.47-.26z"/>
      </g>
      <path class="st2" d="m62.75 27.03-.04.27-.53.06-.08-.05.01-.09.41-.35zM63.78 26.81c0-.1.08-.18.19-.18.1 0 .19.08.19.18s-.08.19-.19.19c-.1-.01-.19-.09-.19-.19z"/>
      <g>
        <path class="st2" d="m68.08 26.06.26.25-.33.45-.09.04-.06-.07-.12-.54z"/>
        <path class="st2" d="m68.62 26.96-.2.19-.46-.26-.04-.08.07-.07.53-.04zM67.21 26.67l.1.25.53-.05.07-.07-.03-.08-.47-.26z"/>
      </g>
      <path class="st2" d="m69.06 27.03.04.27.54.06.08-.05-.02-.09-.4-.35zM65.75 26.63c0-.1.08-.18.19-.18.1 0 .19.08.19.18s-.08.18-.19.18c-.1.01-.19-.08-.19-.18zM67.73 26.81c0-.1.08-.18.19-.18.1 0 .19.08.19.18s-.08.19-.19.19c-.11-.01-.19-.09-.19-.19z"/>
      <g>
        <path class="st3" d="M65.59 24.55c0-.19.16-.35.35-.35.19 0 .35.16.35.35s-.16.35-.35.35c-.19-.01-.35-.16-.35-.35z"/>
        <path class="st4" d="M66.19 24.42v.23h-.54v-.23h.18v-.52h-.24v-.23h.24v-.22h.23v.22h.23v.23h-.23v.52z"/>
        <defs>
          <path id="SVGID_00000053530093905849108710000000171257370452848009_" d="M65.59 24.55c0-.19.16-.35.35-.35.19 0 .35.16.35.35s-.16.35-.35.35c-.19-.01-.35-.16-.35-.35z"/>
        </defs>
        <clipPath id="SVGID_00000075139965429680159620000017948649529099830711_">
          <use xlink:href="#SVGID_00000053530093905849108710000000171257370452848009_" style="overflow:visible"/>
        </clipPath>
        <path style="clip-path:url(#SVGID_00000075139965429680159620000017948649529099830711_);fill-rule:evenodd;clip-rule:evenodd;fill:#a07e00;stroke:#211915;stroke-width:.1328;stroke-miterlimit:3.8637" d="M66.44 24.42v.23h-.97v-.23h.36v-.52h-.24v-.23h.24v-.22h.23v.22h.23v.23h-.23v.52z"/>
        <path class="st6" d="M65.59 24.55c0-.19.16-.35.35-.35.19 0 .35.16.35.35s-.16.35-.35.35c-.19-.01-.35-.16-.35-.35z"/>
        <path class="st6" d="M65.59 24.55c0-.19.16-.35.35-.35.19 0 .35.16.35.35s-.16.35-.35.35c-.19-.01-.35-.16-.35-.35z"/>
        <path class="st7" d="M66.04 24.21c.15.04.25.18.25.33 0 .19-.16.35-.35.35-.2 0-.35-.16-.35-.35 0-.16.11-.3.26-.34"/>
      </g>
      <path class="st18" d="M62.03 27.34c0 .01-.14-.19-.25-.29-.07-.07-.26-.13-.26-.13 0-.03.11-.11.22-.11.07 0 .13.03.17.08l.02-.08s.09.02.14.13c.04.11.01.28.01.28s-.01.09-.05.12z"/>
      <path class="st2" d="M62.04 27.25c.04-.05.14-.04.2.02.07.06.09.15.04.2-.04.05-.14.04-.2-.02-.07-.07-.08-.15-.04-.2z"/>
      <path class="st18" d="M69.78 27.34c0 .01.14-.19.25-.29.07-.07.26-.13.26-.13 0-.03-.11-.11-.22-.11-.07 0-.13.03-.17.08l-.02-.08s-.09.02-.14.13c-.04.11-.01.28-.01.28s.02.09.05.12z"/>
      <path class="st2" d="M69.79 27.25c-.04-.05-.14-.04-.2.02-.07.06-.09.15-.04.2.04.05.14.04.2-.02.06-.07.08-.15.04-.2z"/>
    </g>
    <g>
      <path class="st19" d="M61.69 29.54h8.51v2.32h-8.51zM69.31 33.41a.38.38 0 0 0-.16-.03h-6.37c-.06 0-.12.01-.17.03.22-.08.38-.28.38-.52s-.17-.46-.39-.53c.05.02.12.03.19.03h6.38c.06 0 .13 0 .18-.02l-.04.01c-.23.07-.36.28-.36.52-.01.21.13.43.36.51z"/>
      <path class="st19" d="M62.78 33.38h6.37c.22 0 .39.14.39.31 0 .17-.17.31-.39.31h-6.37c-.22 0-.39-.14-.39-.31 0-.17.17-.31.39-.31zM62.78 31.86h6.38c.22 0 .39.12.39.26 0 .15-.17.26-.39.26h-6.38c-.22 0-.39-.12-.39-.26s.17-.26.39-.26z"/>
    </g>
    <g>
      <path class="st20" d="M60.01 70.92c.59 0 1.11-.13 1.5-.34.38-.2.9-.33 1.48-.33.57 0 1.11.13 1.49.33.38.21.92.34 1.5.34.59 0 1.11-.14 1.5-.36.38-.2.89-.32 1.45-.32.58 0 1.09.12 1.47.32.39.21.92.35 1.51.35v.96c-.59 0-1.12-.14-1.51-.35-.38-.21-.9-.32-1.47-.32-.56 0-1.07.12-1.45.32-.39.21-.91.36-1.5.36-.58 0-1.11-.13-1.5-.34-.38-.21-.92-.33-1.49-.33s-1.09.13-1.48.33c-.39.21-.9.34-1.49.34l-.01-.96z"/>
      <path class="st21" d="M60.01 71.87c.59 0 1.11-.13 1.5-.34.38-.2.9-.33 1.48-.33.57 0 1.11.13 1.49.33.38.21.92.34 1.5.34.59 0 1.11-.14 1.5-.36.38-.2.89-.32 1.45-.32.58 0 1.09.12 1.47.32.39.21.92.35 1.51.35v.96c-.59 0-1.12-.14-1.51-.35-.38-.21-.9-.32-1.47-.32-.56 0-1.07.12-1.45.31-.39.21-.91.36-1.5.36-.58 0-1.11-.13-1.5-.34-.38-.21-.92-.33-1.49-.33s-1.09.13-1.48.33c-.39.21-.9.34-1.49.34l-.01-.95z"/>
      <path class="st20" d="M60.01 72.83c.59 0 1.11-.13 1.5-.34.38-.2.9-.33 1.48-.33.57 0 1.11.13 1.49.33.38.21.92.34 1.5.34.59 0 1.11-.14 1.5-.36.38-.2.89-.31 1.45-.31.58 0 1.09.12 1.47.32.39.21.92.35 1.51.35v.96c-.59 0-1.12-.14-1.51-.35-.38-.21-.9-.32-1.47-.32-.56 0-1.07.12-1.45.31-.39.21-.91.36-1.5.36-.58 0-1.11-.13-1.5-.34-.38-.21-.92-.33-1.49-.33s-1.09.13-1.48.33c-.39.21-.9.34-1.49.34l-.01-.96z"/>
      <path class="st21" d="M60.02 74.74c.59 0 1.11-.13 1.49-.34.38-.2.9-.33 1.48-.33.57 0 1.11.13 1.49.33.38.21.92.34 1.5.34.59 0 1.11-.14 1.5-.36.38-.2.89-.32 1.45-.32.58 0 1.09.12 1.47.32.39.21.92.35 1.51.35v-.95c-.59 0-1.12-.14-1.51-.35-.38-.21-.9-.32-1.47-.32-.56 0-1.07.12-1.45.31-.39.21-.91.36-1.5.36-.58 0-1.11-.13-1.5-.34-.38-.21-.92-.33-1.49-.33s-1.09.13-1.48.33c-.39.21-.91.34-1.5.34l.01.96z"/>
      <path class="st20" d="M60.02 75.7c.59 0 1.11-.13 1.49-.34.38-.2.9-.33 1.48-.33.57 0 1.11.13 1.49.33.38.21.92.34 1.5.34.59 0 1.11-.14 1.5-.36.38-.2.89-.31 1.45-.31.58 0 1.09.12 1.47.32.39.21.92.35 1.51.35v-.95c-.59 0-1.12-.15-1.51-.36-.38-.21-.9-.32-1.47-.32-.56 0-1.07.12-1.45.32-.39.21-.91.36-1.5.36-.58 0-1.11-.13-1.5-.34-.38-.21-.92-.33-1.49-.33s-1.09.13-1.48.33c-.39.21-.91.34-1.5.34l.01.95z"/>
    </g>
    <g>
      <path class="st19" d="M69.31 66.98c-.02.08-.05.16-.05.25 0 .58.48 1.05 1.07 1.05h-8.76c.59 0 1.07-.46 1.07-1.05 0-.08-.02-.17-.03-.25.05.02.11.02.17.02h6.37c.05.01.11 0 .16-.02z"/>
      <path class="st19" d="M62.78 66.38h6.37c.22 0 .39.14.39.31 0 .17-.17.31-.39.31h-6.37c-.22 0-.39-.14-.39-.31 0-.17.17-.31.39-.31zM61.59 68.28h8.73v2.31h-8.73z"/>
    </g>
    <path class="st22" d="M71 58.18c.86.52 1.45 1.05 1.36 1.32-.05.25-.32.43-.71.7-.62.45-.99 1.25-.7 1.62-.51-.43-.83-1.07-.83-1.78a2.3 2.3 0 0 1 .88-1.86z"/>
    <g>
      <path id="SVGID_00000085951624889643231440000002091436160216490421_" class="st23" d="M62.86 34.37h6.21v31.64h-6.21z"/>
      <defs>
        <path id="SVGID_00000059275948745796423110000006543460949626223749_" d="M62.86 34.37h6.21v31.64h-6.21z"/>
      </defs>
      <clipPath id="SVGID_00000057862923626490311950000010489032701326093713_">
        <use xlink:href="#SVGID_00000059275948745796423110000006543460949626223749_" style="overflow:visible"/>
      </clipPath>
      <path style="clip-path:url(#SVGID_00000057862923626490311950000010489032701326093713_);fill:none;stroke:#211915;stroke-width:.174;stroke-miterlimit:3.8637" d="M67.37 33.59v33.33"/>
      <g>
        <defs>
          <path id="SVGID_00000149347654789677338730000001074070332819943351_" d="M62.86 34.37h6.21v31.64h-6.21z"/>
        </defs>
        <clipPath id="SVGID_00000158739167357790505190000015369325718999959974_">
          <use xlink:href="#SVGID_00000149347654789677338730000001074070332819943351_" style="overflow:visible"/>
        </clipPath>
        <path style="clip-path:url(#SVGID_00000158739167357790505190000015369325718999959974_);fill:none;stroke:#211915;stroke-width:.174;stroke-miterlimit:3.8637" d="M68.06 33.59v33.33"/>
      </g>
      <g>
        <path id="SVGID_00000148629877954183781860000001291879292282905498_" class="st13" d="M62.86 34.37h6.21v31.64h-6.21z"/>
      </g>
    </g>
    <path class="st22" d="M56.53 46.2c1.36-.58 3.66-1.01 6.3-1.11.91.01 1.92.1 2.97.28 3.71.64 6.54 2.19 6.31 3.44 0 .02-.01.08-.02.11 0 0 1.39-3.26 1.41-3.39.25-1.4-2.89-3.11-7.01-3.82-1.29-.22-2.55-.31-3.65-.3-2.64 0-4.93.35-6.31.88v3.91z"/>
    <path class="st22" d="M69.08 50.18c1.72-.13 2.9-.61 3.03-1.36.11-.6-.48-1.26-1.51-1.86-.46.05-.99.12-1.53.12l.01 3.1zM62.85 47.76c-1.07.17-1.88.45-2.29.79l-.04.07c-.19.41.75 1.28 2.33 2.25v-3.11z"/>
    <path class="st22" d="M72.93 56.28c.16-.51-1.51-1.53-3.89-2.44-1.08-.4-1.98-.83-3.09-1.34-3.29-1.51-5.73-3.25-5.43-3.89l.03-.07c-.18.15-.45 3.27-.45 3.27-.3.58 1.93 2.3 4.96 3.81.97.48 3.02 1.27 3.99 1.62 1.73.63 3.45 1.8 3.29 2.24l.59-3.2z"/>
    <g>
      <path class="st3" d="M60.37 44.85c.23-.93.54-1.82.84-2.73-.07.02-.14.03-.2.04-.07.01-.14.02-.21.02-.14.65-.33 1.31-.54 1.96-.37-.57-.77-1.13-1.08-1.71-.13.03-.26.06-.39.08s-.26.03-.39.04c.55.77 1.09 1.55 1.6 2.35.06-.02.12-.04.19-.05h.18zM62.73 42.14c-.11.01-.23.01-.34.01s-.23-.01-.34-.02l-.04 2.55 1.71.03c-.01-.05-.02-.11-.02-.16s.02-.11.03-.16c-.31.02-.64.04-1.03.03l.03-2.28zM65.42 42.56c.27.02.54.07.8.12 0-.05-.01-.11-.01-.16s.02-.1.04-.15l-2.32-.2c0 .05.01.11.01.16 0 .06-.02.11-.04.16.24-.01.52-.01.84.02l-.2 2.29c.11 0 .23 0 .34.01.11.01.22.03.34.05l.2-2.3zM66.37 45.07c.11.02.22.03.33.06l.33.09.27-1.17.03.01c.06.16.15.36.19.47l.34.88c.13.02.27.04.4.07.14.03.27.07.4.11l-.12-.26c-.18-.4-.38-.8-.54-1.2.43.02.76-.14.84-.5.06-.25-.04-.44-.26-.61-.17-.12-.49-.19-.7-.24l-.94-.21-.57 2.5zm1.2-2.16c.27.06.61.11.6.43 0 .08-.01.14-.02.19-.09.38-.36.51-.81.36l.23-.98zM70.78 45.83c-.02.28-.07.54-.12.84.12.06.23.11.35.18.11.06.22.14.33.21l.23-2.87c-.06-.02-.1-.05-.15-.07-.05-.03-.1-.06-.14-.09l-2.43 1.61c.06.03.13.06.19.1.06.04.12.08.18.11.21-.18.42-.33.67-.52l.89.5zm-.69-.66.81-.55-.09.95-.72-.4z"/>
    </g>
    <path d="M27.9 19.18c0-.45.37-.82.83-.82a.82.82 0 1 1 0 1.64c-.46 0-.83-.37-.83-.82z" style="fill:none;stroke:#211915;stroke-width:.0219;stroke-miterlimit:3.8637"/>
    <g>
      <path id="SVGID_00000026127236868091250040000014798462625775787930_" class="st10" d="M37.24 12.14c2.54 0 4.79.39 6.26 1 .84.39 1.97.69 3.21.86.94.13 1.84.16 2.62.1 1.04-.02 2.55.29 4.05.99 1.25.57 2.29 1.27 2.98 1.95l-.6.55-.17 1.57-1.64 1.96-.82.72-1.94 1.62-.99.09-.3.89-12.58-1.54-12.61 1.53-.3-.89-.99-.09-1.94-1.62-.82-.72-1.64-1.96-.17-1.57-.6-.55c.69-.68 1.73-1.38 2.98-1.95 1.51-.69 3.01-1.01 4.05-.99.78.06 1.67.03 2.62-.1 1.24-.17 2.37-.46 3.21-.86 1.46-.6 3.59-.99 6.13-.99z"/>
      <defs>
        <path id="SVGID_00000026128595235350605020000009179708315259125178_" d="M37.24 12.14c2.54 0 4.79.39 6.26 1 .84.39 1.97.69 3.21.86.94.13 1.84.16 2.62.1 1.04-.02 2.55.29 4.05.99 1.25.57 2.29 1.27 2.98 1.95l-.6.55-.17 1.57-1.64 1.96-.82.72-1.94 1.62-.99.09-.3.89-12.58-1.54-12.61 1.53-.3-.89-.99-.09-1.94-1.62-.82-.72-1.64-1.96-.17-1.57-.6-.55c.69-.68 1.73-1.38 2.98-1.95 1.51-.69 3.01-1.01 4.05-.99.78.06 1.67.03 2.62-.1 1.24-.17 2.37-.46 3.21-.86 1.46-.6 3.59-.99 6.13-.99z"/>
      </defs>
      <clipPath id="SVGID_00000085212128443146005020000007215441499844247995_">
        <use xlink:href="#SVGID_00000026128595235350605020000009179708315259125178_" style="overflow:visible"/>
      </clipPath>
      <g style="clip-path:url(#SVGID_00000085212128443146005020000007215441499844247995_)">
        <defs>
          <path id="SVGID_00000033364929841172087300000010169367262323993216_" d="M19.85 18.12h34.49v6.06H19.85z"/>
        </defs>
        <clipPath id="SVGID_00000008837743065451361180000017146230402969928091_">
          <use xlink:href="#SVGID_00000033364929841172087300000010169367262323993216_" style="overflow:visible"/>
        </clipPath>
      </g>
      <g>
        <path id="SVGID_00000006690679515561205150000006294094433669593738_" class="st7" d="M37.24 12.14c2.54 0 4.79.39 6.26 1 .84.39 1.97.69 3.21.86.94.13 1.84.16 2.62.1 1.04-.02 2.55.29 4.05.99 1.25.57 2.29 1.27 2.98 1.95l-.6.55-.17 1.57-1.64 1.96-.82.72-1.94 1.62-.99.09-.3.89-12.58-1.54-12.61 1.53-.3-.89-.99-.09-1.94-1.62-.82-.72-1.64-1.96-.17-1.57-.6-.55c.69-.68 1.73-1.38 2.98-1.95 1.51-.69 3.01-1.01 4.05-.99.78.06 1.67.03 2.62-.1 1.24-.17 2.37-.46 3.21-.86 1.46-.6 3.59-.99 6.13-.99z"/>
      </g>
    </g>
    <g>
      <path class="st19" d="M37.4 25.39c-4.74.01-8.99.63-11.99 1.59.25-.12.23-.44-.08-1.27-.37-1-.96-.96-.96-.96 3.31-1.02 7.92-1.65 13.05-1.66 5.13.01 9.77.64 13.08 1.66 0 0-.58-.04-.96.96-.31.83-.33 1.15-.08 1.27-2.99-.96-7.33-1.58-12.06-1.59z"/>
      <path class="st19" d="M37.42 23.09c-5.13.01-9.74.64-13.05 1.66-.22.07-.45-.02-.53-.24-.07-.22.05-.47.27-.54 3.32-1.06 8.05-1.73 13.3-1.74 5.25.01 10 .67 13.32 1.74.22.07.34.32.27.54-.07.22-.3.31-.53.24-3.3-1.01-7.93-1.65-13.05-1.66zM37.43 29.4c-4.68-.01-8.88-.58-11.87-1.52-.22-.07-.33-.28-.32-.49 0-.21.11-.4.32-.47 2.99-.94 7.19-1.51 11.87-1.52 4.68.01 8.87.58 11.87 1.52.21.07.32.26.32.47.01.22-.1.42-.32.49-3 .94-7.19 1.52-11.87 1.52z"/>
      <path id="SVGID_00000134930454885977153700000012401442209048601506_" class="st10" d="M37.42 28.76c-4.23-.01-8.05-.51-10.95-1.3 2.91-.78 6.73-1.26 10.95-1.27 4.22.01 8.06.49 10.97 1.27-2.91.79-6.75 1.3-10.97 1.3z"/>
      <defs>
        <path id="SVGID_00000127737555617792618060000012983724551237796496_" d="M37.42 28.76c-4.23-.01-8.05-.51-10.95-1.3 2.91-.78 6.73-1.26 10.95-1.27 4.22.01 8.06.49 10.97 1.27-2.91.79-6.75 1.3-10.97 1.3z"/>
      </defs>
      <clipPath id="SVGID_00000098181447790196097210000018029299960098749855_">
        <use xlink:href="#SVGID_00000127737555617792618060000012983724551237796496_" style="overflow:visible"/>
      </clipPath>
      <g style="clip-path:url(#SVGID_00000098181447790196097210000018029299960098749855_)">
        <path style="fill:none;stroke:#211915;stroke-width:.0465;stroke-miterlimit:3.8637" d="M37.48 25.64v5.26"/>
        <path style="fill:none;stroke:#211915;stroke-width:.0962;stroke-miterlimit:3.8637" d="M36.82 25.64v5.26"/>
        <path class="st7" d="M36.19 25.64v5.26"/>
        <path class="st12" d="M35.57 25.64v5.26"/>
        <path class="st13" d="M35.02 25.64v5.26"/>
        <path class="st14" d="M34.46 25.64v5.26M33.95 25.64v5.26"/>
        <path class="st40" d="M33.47 25.61v5.26M32.99 25.61v5.26"/>
        <path class="st41" d="M32.55 25.61v5.26M32.11 25.61v5.26M31.66 25.61v5.26"/>
        <path style="fill:none;stroke:#211915;stroke-width:.29;stroke-miterlimit:3.8637" d="M31.22 25.61v5.26"/>
        <path style="fill:none;stroke:#211915;stroke-width:.319;stroke-miterlimit:3.8637" d="M30.78 25.61v5.26"/>
        <path style="fill:none;stroke:#211915;stroke-width:.348;stroke-miterlimit:3.8637" d="M30.33 25.61v5.26"/>
        <path class="st45" d="M29.86 25.61v5.26M29.38 25.61v5.26"/>
        <path style="fill:none;stroke:#211915;stroke-width:.4061;stroke-miterlimit:3.8637" d="M28.9 25.61v5.26"/>
        <path style="fill:none;stroke:#211915;stroke-width:.4351;stroke-miterlimit:3.8637" d="M28.46 25.57v5.26"/>
        <path style="fill:none;stroke:#211915;stroke-width:.4641;stroke-miterlimit:3.8637" d="M27.98 25.57v5.26"/>
        <path style="fill:none;stroke:#211915;stroke-width:.4931;stroke-miterlimit:3.8637" d="M27.5 25.57v5.26"/>
        <path style="fill:none;stroke:#211915;stroke-width:.5801;stroke-miterlimit:3.8637" d="M27.02 25.57v5.26"/>
      </g>
      <defs>
        <path id="SVGID_00000098202773167715398420000010406923535146459008_" d="M37.42 28.76c-4.23-.01-8.05-.51-10.95-1.3 2.91-.78 6.73-1.26 10.95-1.27 4.22.01 8.06.49 10.97 1.27-2.91.79-6.75 1.3-10.97 1.3z"/>
      </defs>
      <clipPath id="SVGID_00000106141447963996385700000005983275209127843235_">
        <use xlink:href="#SVGID_00000098202773167715398420000010406923535146459008_" style="overflow:visible"/>
      </clipPath>
      <path style="clip-path:url(#SVGID_00000106141447963996385700000005983275209127843235_);fill:none;stroke:#211915;stroke-width:.036;stroke-miterlimit:3.8637" d="M38.18 25.64v5.26"/>
      <g>
        <defs>
          <path id="SVGID_00000069357573569773150930000005434496541142858410_" d="M37.42 28.76c-4.23-.01-8.05-.51-10.95-1.3 2.91-.78 6.73-1.26 10.95-1.27 4.22.01 8.06.49 10.97 1.27-2.91.79-6.75 1.3-10.97 1.3z"/>
        </defs>
        <clipPath id="SVGID_00000086656215917954321610000010458034506506543752_">
          <use xlink:href="#SVGID_00000069357573569773150930000005434496541142858410_" style="overflow:visible"/>
        </clipPath>
        <path style="clip-path:url(#SVGID_00000086656215917954321610000010458034506506543752_);fill:none;stroke:#211915;stroke-width:.036;stroke-miterlimit:3.8637" d="M39.01 25.64v5.26"/>
      </g>
      <g>
        <defs>
          <path id="SVGID_00000143611538324489754930000004464386858090998205_" d="M37.42 28.76c-4.23-.01-8.05-.51-10.95-1.3 2.91-.78 6.73-1.26 10.95-1.27 4.22.01 8.06.49 10.97 1.27-2.91.79-6.75 1.3-10.97 1.3z"/>
        </defs>
        <clipPath id="SVGID_00000071554997896724348400000009203906374638672319_">
          <use xlink:href="#SVGID_00000143611538324489754930000004464386858090998205_" style="overflow:visible"/>
        </clipPath>
        <path style="clip-path:url(#SVGID_00000071554997896724348400000009203906374638672319_);fill:none;stroke:#211915;stroke-width:.036;stroke-miterlimit:3.8637" d="M40.14 25.64v5.26"/>
      </g>
      <g>
        <path id="SVGID_00000152226411763422476410000009294375015799231912_" class="st13" d="M37.42 28.76c-4.23-.01-8.05-.51-10.95-1.3 2.91-.78 6.73-1.26 10.95-1.27 4.22.01 8.06.49 10.97 1.27-2.91.79-6.75 1.3-10.97 1.3z"/>
      </g>
      <g>
        <path class="st54" d="M33.76 24.31c0-.23.19-.41.42-.41s.42.18.42.41-.19.41-.42.41-.42-.19-.42-.41z"/>
        <path class="st22" d="M37.43 24.63h-1.25c-.23 0-.42-.18-.42-.41s.19-.41.42-.41h2.54c.23 0 .42.18.42.41s-.19.41-.42.41h-1.29z"/>
        <path class="st55" d="m31.12 24.99-.9.11a.418.418 0 0 1-.47-.36c-.03-.23.14-.43.36-.46l.91-.11.92-.11c.23-.03.44.13.47.36.03.23-.14.43-.37.46l-.92.11z"/>
        <path class="st54" d="M27.46 25.07c0-.23.19-.41.42-.41s.42.18.42.41-.19.41-.42.41c-.24 0-.42-.18-.42-.41z"/>
        <path class="st22" d="m24.66 25.82.47-.63 1.29.17-1.03.78z"/>
        <path class="st55" d="m43.73 24.99.9.11c.23.03.44-.13.47-.36a.415.415 0 0 0-.36-.46l-.91-.11-.92-.11a.418.418 0 0 0-.47.36c-.03.23.14.43.37.46l.92.11z"/>
        <path class="st54" d="M40.26 24.31c0-.23.19-.41.42-.41s.42.18.42.41-.19.41-.42.41c-.24 0-.42-.19-.42-.41zM46.56 25.07c0-.23.19-.41.42-.41s.42.18.42.41-.19.41-.42.41-.42-.18-.42-.41z"/>
        <path class="st22" d="m50.19 25.82-.47-.63-1.28.17 1.02.78z"/>
      </g>
      <path class="st13" d="M25.96 27.61c2.96-.87 6.99-1.4 11.46-1.41 4.47.01 8.52.54 11.48 1.41"/>
    </g>
    <path class="st19" d="m27.95 15.59.53.44.79-1.35c-.86-.55-1.45-1.5-1.45-2.59 0-.12.01-.24.02-.36.08-1.72 2.1-3.15 4.66-3.15 1.33 0 2.53.38 3.37.99.02-.27.05-.5.08-.74-.93-.56-2.14-.9-3.46-.9-2.94 0-5.25 1.74-5.36 3.8-.01.12-.02.24-.02.36 0 1.1.48 2.09 1.25 2.78l-.41.72z"/>
    <path class="st19" d="M27.99 15.61c-1-.78-1.63-1.84-1.63-3.01 0-1.34.85-2.55 2.13-3.34-.79.66-1.27 1.52-1.34 2.48-.01.12-.02.24-.02.36 0 1.1.48 2.09 1.25 2.78l-.39.73z"/>
    <path class="st19" d="M19.12 16.97a3.74 3.74 0 0 1-.91-2.43c0-.56.13-1.09.35-1.57.81-1.74 3.36-3.01 6.4-3.01.83 0 1.62.09 2.35.27-.16.18-.29.39-.41.59-.61-.12-1.26-.19-1.93-.19-2.78 0-5.1 1.12-5.77 2.64a3.023 3.023 0 0 0 .79 3.58l-1 1.71-.54-.45.67-1.14z"/>
    <path class="st19" d="M20.15 11.25c-.73.48-1.28 1.07-1.59 1.72-.22.48-.35 1.01-.35 1.57 0 .93.35 1.77.91 2.43L18.51 18c-.58-.78-.92-1.69-.92-2.66 0-1.67 1.02-3.13 2.56-4.09zM37.38 7.59c.67 0 1.25.46 1.39 1.08.09.55.15 1.17.16 1.84v.2c0 .08.01.16.02.25.02 1.4.22 2.63.49 3.38l-2.05 2.04-2.07-2.04c.27-.75.46-1.99.49-3.38 0-.08.02-.17.02-.25v-.2c.01-.66.07-1.29.16-1.84.12-.62.72-1.08 1.39-1.08z"/>
    <path class="st19" d="M37.38 8.25c.35 0 .64.23.71.55.09.52.14 1.11.15 1.74v.19c0 .08.01.15.01.23.02 1.32.2 2.48.46 3.2l-1.35 1.33-1.35-1.33c.26-.71.44-1.88.46-3.2 0-.08.01-.16.02-.23v-.19c.01-.63.06-1.22.15-1.74.08-.32.4-.55.74-.55zM46.8 15.59l-.53.44-.8-1.35c.86-.55 1.45-1.5 1.45-2.59 0-.12-.01-.24-.02-.36-.08-1.72-2.1-3.15-4.66-3.15-1.33 0-2.53.38-3.37.99-.02-.27-.04-.5-.08-.74.93-.56 2.14-.9 3.46-.9 2.94 0 5.25 1.74 5.36 3.8.01.12.02.24.02.36 0 1.1-.48 2.09-1.25 2.78l.42.72z"/>
    <path class="st19" d="M46.77 15.61c1.01-.78 1.63-1.84 1.63-3.01 0-1.34-.85-2.55-2.13-3.34.79.66 1.27 1.52 1.34 2.48.01.12.02.24.02.36 0 1.1-.48 2.09-1.25 2.78l.39.73z"/>
    <path class="st19" d="M55.63 16.97c.56-.66.91-1.5.91-2.43 0-.56-.12-1.09-.35-1.57-.82-1.74-3.36-3.01-6.4-3.01-.83 0-1.62.09-2.35.27.16.18.29.39.41.59.61-.12 1.26-.19 1.93-.19 2.78 0 5.1 1.12 5.77 2.64.18.39.28.82.28 1.27 0 .92-.42 1.75-1.06 2.31l1 1.71.54-.45-.68-1.14z"/>
    <path class="st19" d="M54.6 11.25c.73.48 1.28 1.07 1.59 1.72.22.48.35 1.01.35 1.57 0 .93-.34 1.77-.91 2.43l.61 1.03c.58-.78.92-1.69.92-2.66 0-1.67-1.02-3.13-2.56-4.09z"/>
    <path class="st13" d="M37.51 13.84h-.02"/>
    <path class="st54" d="M36.66 14.61c0-.4.33-.72.73-.72a.72.72 0 1 1 0 1.44.732.732 0 0 1-.73-.72z"/>
    <path class="st54" d="M36.66 13.2c0-.4.33-.72.73-.72a.72.72 0 1 1 0 1.44.72.72 0 0 1-.73-.72zM36.8 11.69c0-.32.26-.57.58-.57.32 0 .58.26.58.57 0 .32-.26.57-.58.57a.566.566 0 0 1-.58-.57zM36.96 10.33c0-.23.19-.41.42-.41s.42.18.42.41-.19.41-.42.41a.408.408 0 0 1-.42-.41zM37.05 9.14a.335.335 0 0 1 .67 0 .335.335 0 0 1-.67 0z"/>
    <g>
      <path class="st19" d="m37.44 18.91.48.09c-.08.2-.09.42-.09.65 0 1.02.84 1.85 1.88 1.85.83 0 1.54-.54 1.79-1.28.03.02.18-.67.26-.66.07.01.06.71.08.7.12.93.94 1.56 1.86 1.56 1.03 0 1.87-.83 1.87-1.85 0-.08 0-.15-.01-.23l.59-.61.32.77c-.13.24-.18.52-.18.81 0 .97.8 1.76 1.79 1.76.62 0 1.17-.31 1.49-.79l.38-.5v.61c0 .62.25 1.17.83 1.26 0 0 .66.04 1.54-.67.88-.72 1.36-1.31 1.36-1.31l.08.72s-.73 1.17-1.52 1.65c-.43.26-1.09.54-1.61.45-.55-.09-.95-.55-1.15-1.09-.39.24-.86.38-1.36.38-1.07 0-2.03-.61-2.41-1.53-.49.55-1.18.89-1.98.89-.86 0-1.64-.4-2.13-1.02-.48.46-1.14.74-1.86.74-.95 0-1.79-.48-2.27-1.21a2.71 2.71 0 0 1-2.27 1.21c-.72 0-1.38-.28-1.86-.74a2.72 2.72 0 0 1-2.13 1.02c-.8 0-1.49-.34-1.98-.89-.38.92-1.34 1.53-2.41 1.53-.5 0-.96-.14-1.36-.38-.2.53-.6.99-1.15 1.09-.52.09-1.18-.19-1.61-.45-.79-.48-1.52-1.65-1.52-1.65l.08-.72s.48.59 1.36 1.31c.87.72 1.54.67 1.54.67.58-.1.83-.65.83-1.26v-.61l.38.5c.32.47.87.79 1.49.79.99 0 1.79-.79 1.79-1.76 0-.29-.05-.56-.18-.81l.32-.77.59.61c-.01.07-.01.15-.01.23 0 1.02.84 1.85 1.87 1.85.92 0 1.74-.63 1.86-1.56.02.01.02-.7.08-.7.08-.01.23.68.26.66.25.74.95 1.28 1.79 1.28 1.04 0 1.88-.83 1.88-1.85 0-.23-.01-.44-.09-.65l.42-.09z"/>
      <path class="st54" d="M50.33 21.35c.11-.33.01-.66-.22-.73s-.5.13-.61.46-.01.66.22.73c.23.08.5-.13.61-.46zM42.17 19.71c.04-.34-.12-.65-.35-.68-.24-.03-.47.23-.51.57-.04.34.12.65.35.68.24.03.47-.23.51-.57zM32.7 19.71c-.04-.34.12-.65.35-.68.24-.03.47.23.51.57.04.34-.12.65-.35.68-.24.03-.47-.23-.51-.57zM24.54 21.35c-.11-.33-.01-.66.22-.73s.5.13.61.46.01.66-.22.73c-.23.08-.5-.13-.61-.46z"/>
      <path class="st19" d="M28.08 15.69c.41.27.76.71.88 1.2 0 0 .05-.1.27-.23.22-.13.42-.13.42-.13s-.06.39-.1.52c-.03.14-.03.55-.12.92s-.24.67-.24.67a.714.714 0 0 0-.6-.16c-.22.04-.4.17-.51.36 0 0-.25-.23-.46-.55s-.36-.71-.43-.83c-.08-.12-.27-.46-.27-.46s.18-.07.43-.02c.26.05.34.13.34.13-.06-.5.11-1.04.39-1.42z"/>
      <path class="st56" d="M28.25 19.74a.686.686 0 0 1-.26-.43c-.03-.17 0-.35.09-.49 0 0-.34-.18-.7-.28-.28-.08-.76-.08-.91-.08s-.44-.01-.44-.01.02.07.11.22c.1.18.19.3.19.3-.48.12-.9.45-1.16.83.38.27.88.44 1.37.39 0 0-.04.14-.07.34-.03.17-.02.24-.02.24s.27-.1.41-.16c.14-.05.59-.22.82-.38.31-.21.57-.49.57-.49zM29.34 19.55c.08-.14.12-.31.09-.49a.73.73 0 0 0-.25-.43s.26-.28.56-.5c.23-.16.69-.33.82-.38.14-.05.41-.16.41-.16s0 .07-.02.24c-.03.21-.07.34-.07.34.49-.05 1 .12 1.38.39-.26.38-.67.71-1.16.83 0 0 .09.11.19.3.08.15.11.22.11.22s-.29-.01-.44-.01c-.14 0-.63 0-.91-.08-.37-.09-.71-.27-.71-.27z"/>
      <path class="st22" d="M27.9 19.18c0-.45.37-.82.83-.82a.82.82 0 1 1 0 1.64c-.46 0-.83-.37-.83-.82z"/>
      <path class="st19" d="M37.41 14.38c.4.38.7.94.74 1.51 0 0 .07-.1.35-.21.28-.1.49-.06.49-.06s-.15.42-.21.56c-.06.15-.15.61-.32 1-.17.4-.4.7-.4.7a.833.833 0 0 0-1.28 0s-.23-.3-.4-.7c-.17-.4-.25-.86-.32-1-.06-.15-.21-.56-.21-.56s.21-.04.49.06.35.21.35.21c.04-.57.33-1.13.72-1.51z"/>
      <path class="st56" d="M36.8 18.94c-.12-.14-.2-.33-.2-.53s.07-.38.2-.53c0 0-.34-.26-.72-.45-.29-.14-.83-.23-.99-.27-.16-.03-.49-.1-.49-.1s.01.08.08.27c.08.22.15.37.15.37-.56.04-1.09.33-1.46.7.37.38.89.66 1.46.7 0 0-.07.14-.15.37-.06.19-.08.27-.08.27s.32-.06.49-.1c.16-.03.7-.13.99-.27.37-.17.72-.43.72-.43zM38.04 18.94c.12-.14.2-.33.2-.53s-.07-.38-.2-.53c0 0 .34-.26.72-.45.29-.14.83-.23.99-.27.16-.03.49-.1.49-.1s-.01.08-.08.27c-.08.22-.15.37-.15.37.56.04 1.09.33 1.46.7-.37.38-.89.66-1.46.7 0 0 .08.14.15.37.06.19.08.27.08.27s-.32-.06-.49-.1c-.16-.03-.7-.13-.99-.27-.37-.17-.72-.43-.72-.43z"/>
      <g>
        <path class="st19" d="M46.79 15.69c-.41.27-.76.71-.88 1.2 0 0-.05-.1-.27-.23s-.42-.13-.42-.13.06.39.1.52c.03.14.04.55.12.92.09.37.24.67.24.67.16-.14.38-.2.6-.16.22.04.4.17.51.36 0 0 .25-.23.46-.55s.36-.71.43-.83c.08-.12.27-.46.27-.46s-.18-.07-.43-.02c-.26.05-.34.13-.34.13.06-.5-.1-1.04-.39-1.42z"/>
        <path class="st56" d="M46.62 19.74c.13-.1.23-.25.26-.43.03-.17 0-.35-.09-.49 0 0 .34-.18.7-.28.28-.08.76-.08.91-.08s.44-.01.44-.01-.02.07-.11.22c-.1.18-.19.3-.19.3.48.12.9.45 1.16.83-.38.27-.88.44-1.37.39 0 0 .04.14.07.34.03.17.02.24.02.24s-.27-.1-.41-.16c-.14-.05-.59-.22-.82-.38-.31-.21-.57-.49-.57-.49zM45.53 19.55a.738.738 0 0 1-.09-.49.73.73 0 0 1 .25-.43s-.26-.28-.56-.5c-.23-.16-.69-.33-.82-.38-.14-.05-.41-.16-.41-.16a2.384 2.384 0 0 0 .09.58c-.49-.05-1 .12-1.38.39.26.38.67.71 1.16.83 0 0-.09.11-.19.3-.08.15-.11.22-.11.22s.29-.01.44-.01c.14 0 .63 0 .9-.08.38-.09.72-.27.72-.27z"/>
        <path class="st22" d="M45.31 19.18c0-.45.37-.82.83-.82a.82.82 0 1 1 0 1.64c-.45 0-.83-.37-.83-.82z"/>
      </g>
      <g>
        <path class="st22" d="M54.57 20.99c-.19-.21-.6-.17-.9.1-.3.27-.39.66-.19.87.2.21.6.17.9-.1.3-.26.38-.65.19-.87z"/>
        <path class="st56" d="M53.4 21.51c.04-.15.13-.3.27-.42.3-.27.71-.31.9-.1.03.03.05.07.07.1 0 0 .42-.83.92-1.1.5-.28 1.34-.21 1.34-.21 0-.63-.5-1.15-1.14-1.15-.38 0-.73.16-.95.44l-.09-.43s-.52.11-.76.72c-.24.62.02 1.51.02 1.51s-.13-.38-.32-.64c-.19-.25-.69-.53-.95-.66s-.52-.31-.52-.31-.01.07-.02.24c-.01.21 0 .33 0 .33-.48-.06-1.03.02-1.46.19.19.38.54.73 1 .92 0 0-.16.14-.32.3-.13.13-.17.19-.17.19s.33.05.49.07.7.11 1.02.09c.24-.01.5-.05.67-.08z"/>
      </g>
      <g>
        <path class="st22" d="M20.3 20.99c.19-.21.6-.17.9.1s.39.66.19.87c-.2.21-.6.17-.9-.1-.3-.26-.38-.65-.19-.87z"/>
        <path class="st56" d="M21.48 21.51a.92.92 0 0 0-.27-.42c-.3-.27-.71-.31-.9-.1-.03.03-.05.07-.07.1 0 0-.42-.83-.92-1.1-.5-.28-1.34-.21-1.34-.21 0-.63.5-1.15 1.14-1.15.38 0 .73.16.95.44l.09-.43s.52.11.76.72c.24.62-.02 1.51-.02 1.51s.13-.38.32-.64c.19-.25.69-.53.95-.66s.52-.31.52-.31.01.07.02.24c.01.21 0 .33 0 .33.48-.06 1.03.02 1.46.19-.19.38-.54.73-1 .92 0 0 .16.14.32.3.13.13.17.19.17.19s-.33.05-.49.07-.7.11-1.02.09a4.93 4.93 0 0 1-.67-.08z"/>
      </g>
      <path class="st22" d="M36.59 18.41c0-.45.37-.82.83-.82a.82.82 0 1 1 0 1.64.832.832 0 0 1-.83-.82z"/>
    </g>
    <g>
      <path id="SVGID_00000176742906374347872380000003974900792361255842_" d="M35.7 6.01c0-.92.76-1.67 1.69-1.67s1.69.75 1.69 1.67-.76 1.67-1.69 1.67c-.93 0-1.69-.75-1.69-1.67z" style="fill-rule:evenodd;clip-rule:evenodd;fill:#0044ae"/>
      <defs>
        <ellipse id="SVGID_00000163772615473753243040000002923613894888367032_" cx="37.39" cy="6.01" rx="1.69" ry="1.67"/>
      </defs>
      <clipPath id="SVGID_00000061440106369009695280000002066440505784820142_">
        <use xlink:href="#SVGID_00000163772615473753243040000002923613894888367032_" style="overflow:visible"/>
      </clipPath>
      <path style="clip-path:url(#SVGID_00000061440106369009695280000002066440505784820142_);fill-rule:evenodd;clip-rule:evenodd;fill:#a07e00;stroke:#211915;stroke-width:.116;stroke-miterlimit:3.8637" d="M39.36 5.78v.9h-3.82v-.9h1.41V3.15h-.93v-.91h.93v-.9h.92v.9h.92v.91h-.92v2.63z"/>
      <path class="st2" d="M38.77 5.78v.9h-2.75v-.9h.93V3.15h-.93v-.91h.93v-.9h.92v.9h.92v.91h-.92v2.63z"/>
      <g>
        <defs>
          <ellipse id="SVGID_00000092426727808218887660000014893494088520249990_" cx="37.37" cy="6.07" rx="1.69" ry="1.67"/>
        </defs>
        <clipPath id="SVGID_00000050648262605078350360000015690642044260658100_">
          <use xlink:href="#SVGID_00000092426727808218887660000014893494088520249990_" style="overflow:visible"/>
        </clipPath>
        <path style="clip-path:url(#SVGID_00000050648262605078350360000015690642044260658100_);fill-rule:evenodd;clip-rule:evenodd;fill:#a07e00;stroke:#211915;stroke-width:.116;stroke-miterlimit:3.8637" d="M39.36 5.78v.9h-3.82v-.9h1.41V3.15h-.93v-.91h.93v-.9h.92v.9h.92v.91h-.92v2.63z"/>
      </g>
      <path class="st7" d="M37.87 4.41c.7.2 1.21.84 1.21 1.6 0 .92-.76 1.67-1.69 1.67s-1.69-.75-1.69-1.67c0-.77.53-1.42 1.25-1.61"/>
    </g>
    <path class="st60" d="M37.56 76.34c-5 0-9.95-1.27-14.11-3.39-3.07-1.58-5.1-4.77-5.1-8.42V51.3h38.34v13.23c0 3.65-2.03 6.84-5.1 8.42-4.16 2.12-9.04 3.39-14.03 3.39zM37.48 29.15h19.21v22.13H37.48z"/>
    <path class="st61" d="M18.32 29.15h19.16v22.13H18.32z"/>
    <g>
      <path id="SVGID_00000029731492225660428780000009616465554542583174_" class="st10" d="M37.49 64.52c0 5.23-4.26 9.47-9.56 9.47-5.31 0-9.61-4.24-9.61-9.47V51.27h19.17v13.25z"/>
      <defs>
        <path id="SVGID_00000096047415204976739090000012675202659412326544_" d="M37.49 64.52c0 5.23-4.26 9.47-9.56 9.47-5.31 0-9.61-4.24-9.61-9.47V51.27h19.17v13.25z"/>
      </defs>
      <clipPath id="SVGID_00000093879279078403525980000013592484934048737975_">
        <use xlink:href="#SVGID_00000096047415204976739090000012675202659412326544_" style="overflow:visible"/>
      </clipPath>
      <path style="clip-path:url(#SVGID_00000093879279078403525980000013592484934048737975_);fill-rule:evenodd;clip-rule:evenodd;fill:#a07e00;stroke:#211915;stroke-width:.232;stroke-miterlimit:3.8637" d="M22.51 50.8h2.24v24.5h-2.24z"/>
      <defs>
        <path id="SVGID_00000082355027686428319920000000848152933410449304_" d="M37.49 64.52c0 5.23-4.26 9.47-9.56 9.47-5.31 0-9.61-4.24-9.61-9.47V51.27h19.17v13.25z"/>
      </defs>
      <clipPath id="SVGID_00000030481089044634730590000009501549681962419086_">
        <use xlink:href="#SVGID_00000082355027686428319920000000848152933410449304_" style="overflow:visible"/>
      </clipPath>
      <path style="clip-path:url(#SVGID_00000030481089044634730590000009501549681962419086_);fill-rule:evenodd;clip-rule:evenodd;fill:#a07e00;stroke:#211915;stroke-width:.232;stroke-miterlimit:3.8637" d="M18.24 50.8h2.24v24.5h-2.24z"/>
      <g>
        <defs>
          <path id="SVGID_00000008121134504216394730000003498308817641706375_" d="M37.49 64.52c0 5.23-4.26 9.47-9.56 9.47-5.31 0-9.61-4.24-9.61-9.47V51.27h19.17v13.25z"/>
        </defs>
        <clipPath id="SVGID_00000003079130913669785430000007808976334186161048_">
          <use xlink:href="#SVGID_00000008121134504216394730000003498308817641706375_" style="overflow:visible"/>
        </clipPath>
        <path style="clip-path:url(#SVGID_00000003079130913669785430000007808976334186161048_);fill-rule:evenodd;clip-rule:evenodd;fill:#a07e00;stroke:#211915;stroke-width:.232;stroke-miterlimit:3.8637" d="M26.78 50.8h2.24v24.5h-2.24z"/>
      </g>
      <g>
        <defs>
          <path id="SVGID_00000104674037122118577740000003307501810047802785_" d="M37.49 64.52c0 5.23-4.26 9.47-9.56 9.47-5.31 0-9.61-4.24-9.61-9.47V51.27h19.17v13.25z"/>
        </defs>
        <clipPath id="SVGID_00000147908768016872105860000013396702213455075986_">
          <use xlink:href="#SVGID_00000104674037122118577740000003307501810047802785_" style="overflow:visible"/>
        </clipPath>
        <path style="clip-path:url(#SVGID_00000147908768016872105860000013396702213455075986_);fill-rule:evenodd;clip-rule:evenodd;fill:#a07e00;stroke:#211915;stroke-width:.232;stroke-miterlimit:3.8637" d="M31.06 50.8h2.24v24.5h-2.24z"/>
      </g>
      <g>
        <defs>
          <path id="SVGID_00000026146535247559988890000008644522560920828545_" d="M37.49 64.52c0 5.23-4.26 9.47-9.56 9.47-5.31 0-9.61-4.24-9.61-9.47V51.27h19.17v13.25z"/>
        </defs>
        <clipPath id="SVGID_00000139265022693627634970000015556406967588913560_">
          <use xlink:href="#SVGID_00000026146535247559988890000008644522560920828545_" style="overflow:visible"/>
        </clipPath>
        <path style="clip-path:url(#SVGID_00000139265022693627634970000015556406967588913560_);fill-rule:evenodd;clip-rule:evenodd;fill:#a07e00;stroke:#211915;stroke-width:.232;stroke-miterlimit:3.8637" d="M35.33 50.8h2.24v24.5h-2.24z"/>
      </g>
      <g>
        <path id="SVGID_00000113345321695870619080000007015015964045570948_" class="st40" d="M37.49 64.52c0 5.23-4.26 9.47-9.56 9.47-5.31 0-9.61-4.24-9.61-9.47V51.27h19.17v13.25z"/>
      </g>
    </g>
    <path class="st61" d="M56.71 51.27v13.25c0 5.23-4.31 9.47-9.61 9.47s-9.6-4.24-9.6-9.47V51.27h19.21z"/>
    <path d="M48 70.42c.51-.08.99-.23 1.45-.43l.32.57c-.54.24-1.12.41-1.72.51-.1.46-.52.81-1.02.81s-.92-.34-1.02-.8c-.64-.09-1.24-.26-1.81-.51l.32-.57c.49.22 1.01.36 1.56.44.12-.26.33-.46.6-.55v-2.78h.65l.01 2.77c.3.07.54.27.66.54zm-1.87-8.43c-.03-.06-.06-.12-.08-.18h-1.63v-.64h1.62c.02-.06.04-.11.07-.16l-2-2.32.49-.41 1.98 2.28c.03-.02.07-.03.11-.04v-3.04h.65v3.02l.1.03 1.93-2.28.5.41-1.94 2.27c.05.08.08.16.11.25h1.57v.64h-1.58c-.03.07-.06.14-.1.2l1.84 2.17-.49.41-1.83-2.17c-.03.01-.05.03-.09.04v3.59h-.66v-3.6c-.03-.01-.05-.02-.08-.03l-1.9 2.19-.49-.41 1.9-2.22zm-5.11-6.89 2.41 2.8.49-.41-2.42-2.79c.05-.07.08-.16.11-.24h1.76v-.64h-1.76a1.05 1.05 0 0 0-.99-.71c-.58 0-1.04.46-1.04 1.03 0 .45.29.83.7.97v2.16h.65v-2.15c.02-.01.07-.01.09-.02zm2.6 14.39-.32.57c-.55-.35-1.03-.79-1.45-1.28-.33.1-.71.04-.99-.2-.44-.37-.49-1.02-.12-1.45l.06-.06a6.33 6.33 0 0 1-.5-1.99h.65c.05.6.2 1.16.42 1.7.18-.03.38 0 .56.06l1.63-1.88.49.41-1.62 1.88c.22.35.21.79-.04 1.14.35.42.76.79 1.23 1.1zm-3.35-5.44v-1.59c-.42-.13-.73-.52-.73-.98s.31-.85.73-.99v-2.18h.65v2.19c.32.1.56.35.66.67h1.75v.64h-1.76c-.1.3-.34.54-.65.64v1.61l-.65-.01zm.92 3.46c.16-.18.44-.21.63-.05.19.16.21.44.05.62s-.44.21-.63.05a.441.441 0 0 1-.05-.62zm-.82-1.86-.67-.15-.09-1.77.66-.23v1.01c0 .4.03.77.1 1.14zm.56-2.19.67.16s.03 1.14.02.88c-.02-.3.07.89.07.89l-.67.23c-.07-.36-.09-.73-.09-1.11v-1.05zm2.2 5.66c.56.46 1.22.83 1.92 1.06l.15-.67c-.58-.19-1.12-.47-1.59-.83l-.48.44zm-.32.58c.57.45 1.22.81 1.92 1.05l-.5.49c-.56-.22-1.09-.5-1.57-.84l.15-.7zm.87-3.9.64.28 1.17-1.35-.38-.58-1.43 1.65zm-.5-.41-.38-.58 1.17-1.35.64.28-1.43 1.65zm-3.04-3.92c0-.24.2-.44.45-.44s.45.2.45.44-.2.44-.45.44-.45-.19-.45-.44zm10.24 8.02.32.57c.55-.35 1.03-.79 1.45-1.28.33.1.71.04.99-.2.44-.37.49-1.02.12-1.45l-.06-.06c.26-.62.44-1.29.5-1.99h-.65c-.05.6-.2 1.16-.42 1.7-.18-.03-.38 0-.56.06l-1.63-1.88-.49.41 1.62 1.88c-.22.35-.21.79.04 1.14-.36.42-.77.79-1.23 1.1zm3.34-5.44v-1.59c.42-.13.73-.52.73-.98s-.31-.85-.73-.99v-2.18h-.65v2.19c-.32.1-.56.35-.66.67h-1.75v.64h1.76c.1.3.34.54.65.64v1.61l.65-.01zm-.92 3.46a.454.454 0 0 0-.63-.05c-.19.16-.21.44-.05.62s.44.21.63.05c.18-.15.21-.43.05-.62zm.82-1.86.67-.16.09-1.77-.67-.23v1.01c.01.41-.02.78-.09 1.15zm-.56-2.19-.67.16s-.04 1.14-.02.88c.02-.3-.07.89-.07.89l.67.23c.07-.36.09-.73.09-1.11v-1.05zm.66-8.34v2.15h-.65v-2.16c-.05-.02-.1-.04-.14-.06l-2.39 2.81-.5-.41 2.44-2.86c-.02-.04-.04-.08-.06-.13h-1.77v-.64h1.77c.14-.41.53-.71.99-.71.58 0 1.04.46 1.04 1.03 0 .46-.3.85-.73.98zm-6.38-.01v1.32h-.65v-1.31c-.32-.1-.58-.35-.68-.66h-1.58v-.64h1.58c.14-.41.53-.71.99-.71.46 0 .85.3.99.71h1.61v.64h-1.61c-.11.3-.34.55-.65.65zm3.52 14.01c-.56.46-1.22.83-1.92 1.06l-.15-.67c.58-.19 1.12-.47 1.59-.83l.48.44zm.32.58c-.57.45-1.22.81-1.92 1.05l.5.49c.56-.22 1.09-.5 1.57-.84l-.15-.7zm-10.9-12.98-.67.19v1.77l.67.19v-2.15zm.65 0 .67.19v1.77l-.67.19v-2.15zm12.14 0-.67.19v1.77l.67.19v-2.15zm.65 0 .67.19v1.77l-.67.19v-2.15zm-3.41 9.08-.64.28-1.17-1.35.38-.58 1.43 1.65zm.5-.41.38-.58-1.17-1.35-.64.28 1.43 1.65zm-7.25-8.32.64-.28 1.17 1.35-.38.58-1.43-1.65zm-.5.42-.38.58 1.17 1.35.64-.28-1.43-1.65zm7.34-.47-.64-.28-1.16 1.36.39.57 1.41-1.65zm.5.41.38.57-1.16 1.36-.64-.28 1.42-1.65zm-8.09 3.74.2-.66h1.8l.19.66h-2.19zm0 .64.2.66h1.8l.19-.66h-2.19zm-2.64-7.67c0-.24.2-.44.45-.44s.45.2.45.44-.2.44-.45.44-.45-.2-.45-.44zm4.81.32-.2.66h-1.8l-.2-.66h2.2zm0-.64-.2-.66h-1.8l-.2.66h2.2zm7.98 7.65c0-.24.2-.44.45-.44s.45.2.45.44-.2.44-.45.44-.45-.19-.45-.44zm-1.74-.3-.2-.66h-1.8l-.19.66h2.19zm0 .64-.2.66h-1.8l-.19-.66h2.19zm-4.63 9.03c0-.24.2-.44.45-.44s.45.2.45.44-.2.44-.45.44-.45-.2-.45-.44zm.76-3.21.67-.19v-1.77l-.67-.19v2.15zm-.65 0-.67-.19v-1.77l.67-.19v2.15zm6.26-13.49c0-.24.2-.44.45-.44s.45.2.45.44-.2.44-.45.44-.45-.2-.45-.44zm-6.41 0c0-.24.2-.44.45-.44s.45.2.45.44-.2.44-.45.44-.45-.2-.45-.44zm2.49.32.2.66h1.8l.19-.66h-2.19zm0-.64.2-.66h1.8l.19.66h-2.19zm-2.35 2.07-.67.19v1.77l.67.19v-2.15zm.65 0 .67.19v1.77l-.67.19v-2.15z" style="fill-rule:evenodd;clip-rule:evenodd;fill:#a07e00;stroke:#a07e00;stroke-width:.116;stroke-miterlimit:3.8637"/>
    <path d="M46 61.48c0-.57.47-1.03 1.04-1.03.58 0 1.04.46 1.04 1.03s-.47 1.03-1.04 1.03c-.58 0-1.04-.46-1.04-1.03z" style="fill-rule:evenodd;clip-rule:evenodd;fill:#006f46"/>
    <path class="st22" d="m47.27 34.6.02-.24.03-.14s-.61.05-.94-.04c-.32-.1-.61-.23-.92-.5-.3-.27-.42-.43-.64-.47-.52-.08-.92.16-.92.16s.39.15.68.52.61.56.75.61c.23.07 1.01.02 1.23.03.22.01.71.07.71.07z"/>
    <g>
      <path d="M50.14 33.7s0 .29.03.56c.03.26-.08.49-.04.64.04.15.06.26.12.37.05.11.08.37.08.37s-.15-.11-.28-.21c-.14-.11-.23-.17-.23-.17s.03.29.04.41c.01.12.08.35.19.49s.33.35.4.53.06.57.06.57-.18-.3-.33-.35-.48-.24-.48-.24.3.31.3.61-.12.64-.12.64-.14-.27-.32-.45-.43-.35-.43-.35.19.46.19.78c0 .31-.06.98-.06.98s-.15-.26-.3-.38-.33-.23-.39-.31c-.06-.08.18.26.21.46s.12.93.73 1.86c.36.55.91 1.5 2.1 1.19s.75-1.97.5-2.75-.37-1.63-.36-1.93.22-1.18.19-1.35c-.03-.16-.09-.8.06-1.31.15-.53.28-.74.36-.95.08-.22.15-.34.18-.53s.03-.54.03-.54.22.42.28.57c.06.15.06.6.06.6s.04-.45.37-.67c.33-.22.72-.45.82-.57s.13-.2.13-.2-.03.76-.24 1.06c-.14.2-.68.83-.68.83s.28-.11.47-.12c.19-.01.33 0 .33 0s-.23.19-.54.65c-.3.46-.18.5-.4.88s-.4.39-.68.63c-.42.35-.19 1.73-.14 1.93.06.2.77 1.89.79 2.3.01.41.08 1.32-.61 1.91-.45.38-1.17.38-1.34.49-.17.11-.5.45-.5 1.16s.25.82.44.99c.19.18.44.08.5.22s.08.22.17.3c.08.08.14.18.11.33s-.35.49-.46.74c-.11.24-.33.89-.33.98 0 .1-.03.39.07.54 0 0 .35.42.11.5-.15.05-.3-.1-.37-.08-.21.05-.31.19-.37.18-.14-.03-.14-.1-.15-.3-.01-.2-.01-.28-.07-.28-.08 0-.12.07-.14.18-.01.11-.01.35-.11.35s-.23-.18-.32-.22c-.08-.04-.32-.08-.33-.19-.01-.11.14-.34.29-.38s.29-.12.19-.2c-.1-.08-.19-.08-.29 0-.1.08-.3.01-.29-.11s.04-.27.03-.34c-.01-.07-.18-.2.04-.33.22-.12.32.11.54.07s.33-.12.41-.26c.08-.14.07-.42-.08-.6s-.3-.2-.36-.31-.14-.37-.14-.37.04.48.01.54c-.03.07-.01.35-.01.35s-.15-.18-.27-.31c-.13-.14-.25-.54-.25-.54s-.01.38-.01.53c0 .15.17.29.11.34-.06.05-.32-.29-.39-.34s-.29-.23-.39-.42-.17-.46-.19-.56c-.03-.1-.07-.52-.03-.63.07-.16.18-.45.18-.45H48c-.29 0-.5-.1-.61.11-.11.2-.06.61.08 1.14.14.53.22.79.18.88-.04.1-.22.31-.29.35-.07.04-.26.03-.34-.01-.08-.04-.22-.11-.48-.11s-.43.01-.52-.01c-.1-.03-.33-.15-.44-.12-.11.03-.3.13-.25.29.08.25-.08.3-.19.29-.11-.01-.21-.05-.35-.1-.14-.04-.35 0-.32-.16s.08-.18.15-.3.1-.2.02-.21c-.1-.01-.19-.02-.27.04s-.19.2-.29.15c-.1-.05-.17-.17-.17-.43s-.26-.48-.02-.47c.24.01.54.19.59.05s.02-.2-.11-.31-.29-.17-.12-.31c.17-.14.22-.14.28-.21.07-.07.16-.31.28-.26.24.12.01.29.25.56.24.28.39.37.79.33.4-.04.51-.1.51-.21 0-.12-.03-.33-.04-.41-.01-.09.05-.39.05-.39s-.18.12-.24.23c-.05.12-.16.32-.16.32s-.05-.24-.03-.44c.01-.11.05-.31.04-.35-.01-.11-.09-.37-.09-.37s-.06.29-.11.37c-.04.08-.07.43-.07.43s-.25-.23-.18-.62c.05-.3-.04-.69.04-.82.09-.13.29-.65.79-.67.5-.02.89.02 1.06.01.17-.01.79-.13.79-.13s-1.13-.61-1.39-.79-.66-.65-.79-.86-.25-.63-.25-.63-.21.01-.39.12-.37.27-.48.39c-.11.13-.28.41-.28.41s.03-.37.03-.49-.02-.34-.02-.34-.13.51-.39.7c-.26.19-.56.46-.56.46s.03-.29.03-.35.07-.39.07-.39-.18.29-.46.34-.69.04-.72.22c-.03.18.08.43.01.55-.07.13-.21.21-.21.21s-.16-.14-.3-.15c-.14-.01-.27.06-.27.06s-.12-.16-.08-.27c.04-.11.26-.27.21-.33s-.23.02-.34.07-.33.11-.31-.07.08-.29.02-.41c-.05-.13-.02-.21.07-.24.09-.03.43.01.46-.07.03-.09-.09-.19-.31-.24-.23-.05-.34-.19-.22-.31.12-.12.15-.15.21-.26.05-.11.08-.3.28-.2.21.1.16.33.38.4s.72-.03.83-.1c.11-.06.45-.33.57-.39.12-.06.62-.45.62-.45s-.29-.21-.4-.32-.3-.36-.4-.41c-.1-.05-.57-.24-.73-.26-.16-.01-.66-.19-.66-.19s.23-.07.3-.14c.08-.06.25-.22.34-.21.09.01.11.01.11.01s-.46-.02-.56-.05c-.1-.03-.38-.21-.49-.21s-.32.04-.32.04.29-.19.53-.23c.24-.04.42-.03.42-.03s-.37-.11-.45-.23c-.09-.13-.17-.32-.24-.4-.06-.08-.11-.22-.23-.23s-.32.15-.44.14c-.12-.01-.21-.09-.22-.27-.01-.18 0-.12-.04-.21-.04-.1-.22-.32-.05-.37.16-.05.51.03.54-.03.03-.06-.18-.26-.32-.33s-.37-.2-.25-.31.24-.15.3-.24c.07-.1.14-.36.28-.28s.33.5.44.47c.11-.03.12-.33.1-.46-.02-.13 0-.35.11-.33.11.02.19.17.37.18.17.01.43-.04.41.09s-.12.29-.24.43-.17.41-.1.6c.07.18.27.47.44.59s.5.2.7.34c.21.14.68.53.84.57s.32.13.32.13.18-.09.43-.09.82.04 1.04-.05c.22-.1.5-.26.41-.46s-.56-.38-.52-.54.22-.17.51-.18c.29-.01.69.05.77-.37.08-.43.1-.67-.31-.77-.41-.1-.71-.11-.79-.41-.07-.31-.15-.38-.07-.47.09-.09.24-.13.54-.15s.65-.02.74-.1c.1-.07.12-.28.24-.36.12-.08.58-.16.58-.16s.55.28 1.07.68c.45.32.86.85.86.85z" style="fill-rule:evenodd;clip-rule:evenodd;fill:#d95aaf;stroke:#211915;stroke-width:.174;stroke-miterlimit:3.8637"/>
      <path class="st71" d="M46.17 33.4s-.06-.19-.08-.24c-.01-.05-.04-.12-.04-.12s.33 0 .32.11c-.01.11-.11.11-.13.15-.02.04-.07.1-.07.1z"/>
      <path class="st72" d="m47.7 32.85-.02-.17s.29 0 .43.11c.22.16.36.4.34.42-.04.04-.2-.11-.32-.15 0 0-.09.02-.17.02-.09 0-.13-.04-.14-.08s.01-.12.01-.12l-.13-.03z"/>
      <path class="st7" d="M49.8 35.25s-.13-.19-.16-.26c-.03-.06-.09-.19-.09-.19"/>
      <path class="st22" d="M41.91 33.34s.18.14.32.16.29.02.31.02.07-.21.04-.36c-.07-.48-.5-.58-.5-.58s.13.29.07.43c-.08.18-.24.33-.24.33zM41.03 33.75s-.16-.31-.51-.27-.57.32-.57.32.38-.01.47.05c.14.1.18.34.18.34s.21-.13.27-.21c.07-.08.16-.23.16-.23zM40.61 34.99s-.29.04-.45.23-.14.55-.14.55.19-.21.37-.21c.17 0 .44.06.44.06s-.09-.22-.09-.32c0-.08-.13-.31-.13-.31z"/>
      <path class="st71" d="m46.18 34.95.13-.21.13.19zM46.49 34.94l.15-.21.17.19zM46.35 33.63l.31.12-.28.15zM46.73 33.74l.28.07-.23.18z"/>
      <path class="st13" d="M44.62 36.24s-.31.09-.42.27c-.14.21-.13.43-.13.43s.26-.22.59-.13c.33.1.37.13.51.12.14-.01.49-.14.49-.14s-.28.34-.25.57.07.34.07.46c-.02.29-.23.64-.23.64s.12-.07.4-.14c.28-.06.52-.2.67-.32.15-.12.35-.4.35-.4s-.07.39 0 .56c.07.17.09.66.09.66s.18-.16.32-.24c.07-.04.27-.15.35-.28.05-.09.12-.43.12-.43s.04.36.15.53.27.69.27.69.11-.34.23-.48.26-.32.27-.42c.01-.11-.03-.34-.03-.34l.15.34"/>
      <path class="st13" d="M44.21 38.43s.18-.33.36-.44c.17-.11.41-.3.48-.32s.35-.18.35-.18M45.77 39.55s.42-.22.54-.3c.26-.16.44-.45.44-.45"/>
      <path class="st22" d="M41.59 39.01s-.16-.18-.44-.13-.46.38-.46.38.24-.06.38-.03.24.18.24.18.13-.12.17-.18.11-.22.11-.22zM41.27 40.19s-.24-.04-.44.13c-.21.17-.22.5-.22.5s.19-.17.35-.15c.15.02.33.11.33.11l.04-.26c.04-.14-.06-.33-.06-.33zM41.82 41.28s-.01.32.13.51c.15.2.43.23.43.23s-.09-.21-.11-.32c-.02-.16.13-.3.13-.3s-.14-.15-.28-.15c-.14.01-.3.03-.3.03z"/>
      <path class="st13" d="M48.19 41.81s.78.5.76.91c-.02.42-.43.96-.43.96"/>
      <path class="st22" d="M44.62 44.08s-.19-.26-.46-.24c-.27.01-.55.28-.55.28s.33-.03.42.08c.09.12.17.27.17.27s.15-.08.22-.14c.06-.06.2-.25.2-.25zM43.79 45.19s-.36-.05-.53.14-.16.54-.16.54.22-.24.41-.22.41.13.41.13-.03-.21-.05-.31c-.02-.1-.08-.28-.08-.28zM44.56 46.37s-.17.25-.04.46c.13.2.4.3.4.3s-.1-.15-.05-.32c.03-.14.26-.32.26-.32l-.57-.12zM49.3 46.85s-.31-.07-.49.03c-.17.11-.31.55-.31.55s.28-.24.49-.21c.21.03.36.12.36.12s.03-.18.01-.31c-.02-.07-.06-.18-.06-.18zM49.45 48.04s-.24.26-.15.47c.09.21.24.44.24.44s-.01-.32.09-.4c.14-.13.4-.15.4-.15s-.21-.19-.27-.21c-.07-.03-.31-.15-.31-.15zM50.64 48.42s-.12.31.11.51c.23.2.42.22.42.22s-.17-.32-.12-.49c.06-.18.21-.29.21-.29s-.28-.1-.32-.09c-.05.02-.3.14-.3.14z"/>
    </g>
    <g>
      <path d="M38.48 70.47c.8.25 1.2.87 1.2 1.59 0 .94-.88 1.66-2.02 1.66s-2.07-.72-2.07-1.66c0-.71.38-1.51 1.18-1.57 0 0-.03-.07-.09-.2-.08-.09-.25-.26-.25-.26s.3-.06.48.01c.17.07.29.18.29.18s.08-.17.2-.3c.12-.13.27-.21.27-.21s.18.15.23.26c.06.11.1.23.1.23s.16-.14.3-.2.32-.1.32-.1-.05.18-.09.28c-.03.09-.05.29-.05.29z" style="fill-rule:evenodd;clip-rule:evenodd;fill:#f7cc7e;stroke:#211915;stroke-width:.232;stroke-miterlimit:3.8637"/>
      <path class="st74" d="M37.49 74.75s-1.52-1.06-2.18-1.21c-.84-.18-1.79-.03-2.2-.06.01.01.49.37.7.59.21.22.91.66 1.31.76 1.24.32 2.37-.08 2.37-.08zM37.92 74.84s.97-1.05 1.99-1.2c1.2-.17 1.99.1 2.46.23.01 0-.39.2-.6.35s-.75.62-1.58.63c-.83.01-1.75-.09-1.9-.07-.14.02-.37.06-.37.06z"/>
      <path class="st61" d="M37.63 73.54c-.38-.37-.62-.89-.62-1.47s.24-1.11.62-1.47c.38.37.62.89.62 1.47 0 .57-.23 1.1-.62 1.47z"/>
      <path class="st74" d="M37.25 75.7s.23-.6.26-1.12c.02-.44-.06-.86-.06-.86h.31s.15.46.15.86-.07.94-.07.94-.21.03-.28.07c-.08.02-.31.11-.31.11z"/>
    </g>
    <g>
      <path class="st54" d="M56.46 18.48c0-.23.19-.41.42-.41s.42.18.42.41-.19.41-.42.41a.42.42 0 0 1-.42-.41zM57.03 17.42c0-.23.19-.41.42-.41s.42.18.42.41-.19.41-.42.41c-.23 0-.42-.18-.42-.41zM57.41 16.2c0-.23.19-.41.42-.41s.42.18.42.41-.19.41-.42.41-.42-.18-.42-.41zM57.46 14.89c0-.23.19-.41.42-.41s.42.18.42.41-.19.41-.42.41c-.23 0-.42-.18-.42-.41zM57.15 13.6c0-.23.19-.41.42-.41s.42.18.42.41-.19.41-.42.41-.42-.18-.42-.41zM56.51 12.43c0-.23.19-.41.42-.41s.42.18.42.41-.19.41-.42.41c-.23 0-.42-.18-.42-.41zM55.65 11.46c0-.23.19-.41.42-.41s.42.18.42.41-.19.41-.42.41a.408.408 0 0 1-.42-.41zM54.65 10.67c0-.23.19-.41.42-.41s.42.18.42.41-.19.41-.42.41-.42-.19-.42-.41zM53.46 10.01c0-.23.19-.41.42-.41s.42.18.42.41-.19.41-.42.41c-.23 0-.42-.18-.42-.41zM52.22 9.55c0-.23.19-.41.42-.41s.42.18.42.41-.19.41-.42.41-.42-.19-.42-.41zM50.84 9.29c0-.23.19-.41.42-.41s.42.18.42.41-.19.41-.42.41-.42-.19-.42-.41zM49.53 9.22c0-.23.19-.41.42-.41s.42.18.42.41-.19.41-.42.41-.42-.19-.42-.41zM48.24 9.26c0-.23.19-.41.42-.41s.42.18.42.41-.19.41-.42.41-.42-.18-.42-.41zM46.95 9.26c0-.23.19-.41.42-.41s.42.18.42.41-.19.41-.42.41a.408.408 0 0 1-.42-.41zM47.59 10.41c0-.23.19-.41.42-.41s.42.18.42.41-.19.41-.42.41-.42-.18-.42-.41zM47.86 11.68c0-.23.19-.41.42-.41s.42.18.42.41-.19.41-.42.41c-.24 0-.42-.18-.42-.41zM47.9 12.95c0-.23.19-.41.42-.41s.42.18.42.41-.19.41-.42.41-.42-.19-.42-.41zM47.52 14.1c0-.23.19-.41.42-.41s.42.18.42.41-.19.41-.42.41-.42-.18-.42-.41zM46.81 15.15c0-.23.19-.41.42-.41s.42.18.42.41-.19.41-.42.41-.42-.18-.42-.41zM45.98 8.46c0-.23.19-.41.42-.41s.42.18.42.41-.19.41-.42.41a.402.402 0 0 1-.42-.41zM44.83 7.81c0-.23.19-.41.42-.41s.42.18.42.41-.19.41-.42.41-.42-.19-.42-.41zM43.57 7.41c0-.23.19-.41.42-.41s.42.18.42.41-.19.41-.42.41c-.23 0-.42-.18-.42-.41zM42.26 7.18c0-.23.19-.41.42-.41s.42.18.42.41-.19.41-.42.41a.42.42 0 0 1-.42-.41zM40.98 7.2c0-.23.19-.41.42-.41s.42.18.42.41-.19.41-.42.41c-.24 0-.42-.18-.42-.41zM39.64 7.43c0-.23.19-.41.42-.41s.42.18.42.41-.19.41-.42.41-.42-.18-.42-.41zM38.4 7.88c0-.23.19-.41.42-.41s.42.18.42.41a.42.42 0 0 1-.84 0zM17.46 18.48c0-.23.19-.41.42-.41s.42.18.42.41-.19.41-.42.41-.42-.19-.42-.41zM16.88 17.42c0-.23.19-.41.42-.41s.42.18.42.41-.19.41-.42.41-.42-.18-.42-.41zM16.5 16.2c0-.23.19-.41.42-.41s.42.18.42.41-.19.41-.42.41-.42-.18-.42-.41zM16.45 14.89c0-.23.19-.41.42-.41s.42.18.42.41-.19.41-.42.41c-.23 0-.42-.18-.42-.41zM16.76 13.6c0-.23.19-.41.42-.41s.42.18.42.41-.19.41-.42.41-.42-.18-.42-.41zM17.41 12.43c0-.23.19-.41.42-.41s.42.18.42.41-.19.41-.42.41-.42-.18-.42-.41zM18.27 11.46c0-.23.19-.41.42-.41s.42.18.42.41-.19.41-.42.41a.402.402 0 0 1-.42-.41zM19.26 10.67c0-.23.19-.41.42-.41s.42.18.42.41-.19.41-.42.41-.42-.19-.42-.41zM20.46 10.01c0-.23.19-.41.42-.41s.42.18.42.41-.19.41-.42.41c-.24 0-.42-.18-.42-.41zM21.69 9.55c0-.23.19-.41.42-.41s.42.18.42.41-.19.41-.42.41a.42.42 0 0 1-.42-.41zM23.08 9.29c0-.23.19-.41.42-.41s.42.18.42.41-.19.41-.42.41-.42-.19-.42-.41zM24.39 9.22c0-.23.19-.41.42-.41s.42.18.42.41-.19.41-.42.41-.42-.19-.42-.41zM25.68 9.26c0-.23.19-.41.42-.41s.42.18.42.41-.19.41-.42.41a.408.408 0 0 1-.42-.41zM26.97 9.26c0-.23.19-.41.42-.41s.42.18.42.41-.19.41-.42.41a.402.402 0 0 1-.42-.41zM26.32 10.41c0-.23.19-.41.42-.41s.42.18.42.41-.19.41-.42.41-.42-.18-.42-.41zM26.06 11.68c0-.23.19-.41.42-.41s.42.18.42.41-.19.41-.42.41-.42-.18-.42-.41zM26.01 12.95c0-.23.19-.41.42-.41s.42.18.42.41-.19.41-.42.41-.42-.19-.42-.41zM26.39 14.1c0-.23.19-.41.42-.41s.42.18.42.41-.19.41-.42.41-.42-.18-.42-.41zM27.1 15.15c0-.23.19-.41.42-.41s.42.18.42.41-.19.41-.42.41a.408.408 0 0 1-.42-.41zM27.94 8.46c0-.23.19-.41.42-.41s.42.18.42.41-.19.41-.42.41-.42-.18-.42-.41zM29.08 7.81c0-.23.19-.41.42-.41s.42.18.42.41-.19.41-.42.41-.42-.19-.42-.41zM30.34 7.41c0-.23.19-.41.42-.41s.42.18.42.41-.19.41-.42.41c-.23 0-.42-.18-.42-.41zM31.66 7.18c0-.23.19-.41.42-.41.23 0 .42.18.42.41s-.19.41-.42.41c-.24 0-.42-.19-.42-.41zM32.94 7.2c0-.23.19-.41.42-.41s.42.18.42.41-.19.41-.42.41c-.23 0-.42-.18-.42-.41zM34.28 7.43c0-.23.19-.41.42-.41s.42.18.42.41-.19.41-.42.41a.402.402 0 0 1-.42-.41zM35.51 7.88c0-.23.19-.41.42-.41s.42.18.42.41a.42.42 0 0 1-.84 0z"/>
    </g>
    <path style="fill-rule:evenodd;clip-rule:evenodd;fill:#a07e00;stroke:#211915;stroke-width:.232;stroke-miterlimit:3.8637" d="M33.36 48.2H22.53v-2.83h1.55v-5.8h-.72v-2.58h1.19v-1.83h-.53v-1.31h.5v.39h.52v-.39h.58v.39h.53v-.39h.5v1.31h-.56v1.83h1.08v-3.9h-.63V31.6H27v.38h.58v-.38h.78v.38h.61v-.38h.47v1.49h-.72v3.9h1.05v-1.83h-.53v-1.31h.47v.39h.55v-.39h.59v.39h.52v-.39h.5v1.31h-.55v1.83h1.27v2.58h-.75v5.8h1.52z"/>
    <path class="st76" d="M25.17 41.5a.474.474 0 1 1 .95 0v1.13h-.95V41.5zM29.81 41.5c0-.27.2-.49.47-.49.26 0 .48.22.48.49v1.13h-.95V41.5zM26.93 46.45c0-.57.44-1.03 1.02-1.03.57 0 1.04.46 1.04 1.03v1.75h-2.06v-1.75z"/>
    <path d="M31.33 51.18c0-4.01 2.78-7.27 6.21-7.27s6.21 3.25 6.21 7.27c0 4.01-2.78 7.27-6.21 7.27s-6.21-3.25-6.21-7.27z" style="fill-rule:evenodd;clip-rule:evenodd;fill:#b60027;stroke:#211915;stroke-width:.27;stroke-miterlimit:3.8637"/>
    <path d="M33.17 51.17c0-2.94 1.96-5.33 4.37-5.33s4.37 2.39 4.37 5.33-1.95 5.33-4.37 5.33-4.37-2.39-4.37-5.33z" style="fill-rule:evenodd;clip-rule:evenodd;fill:#0044ae;stroke:#211915;stroke-width:.27;stroke-miterlimit:3.8637"/>
    <g>
      <path class="st79" d="M35.47 47.5s-.52.59-.52 1.14.22 1.01.22 1.01a.575.575 0 0 0-.54-.38c-.32 0-.57.25-.57.56 0 .09.05.23.09.31l.19.39c.06-.14.21-.23.38-.23.23 0 .41.18.41.4 0 .03 0 .07-.01.1h-.47v.41h.42l-.31.64.41-.17.31.36.32-.36.41.17-.31-.64h.42v-.41h-.47c-.01-.03-.01-.07-.01-.1 0-.22.18-.4.41-.4.17 0 .31.08.38.23l.19-.39a.85.85 0 0 0 .09-.31c0-.31-.26-.56-.57-.56-.25 0-.46.16-.54.38 0 0 .22-.46.22-1.01s-.55-1.14-.55-1.14z"/>
      <path class="st79" d="M34.65 50.81h1.66v.41h-1.66z"/>
    </g>
    <g>
      <path class="st79" d="M39.53 47.5s-.52.59-.52 1.14.22 1.01.22 1.01a.575.575 0 0 0-.54-.38c-.31 0-.57.25-.57.56 0 .09.05.23.09.31l.19.39c.06-.14.21-.23.38-.23.23 0 .41.18.41.4 0 .03 0 .07-.01.1h-.46v.41h.42l-.31.64.41-.17.31.36.32-.36.41.17-.31-.64h.42v-.41h-.46c-.01-.03-.01-.07-.01-.1 0-.22.18-.4.41-.4.17 0 .31.08.38.23l.19-.39a.85.85 0 0 0 .09-.31c0-.31-.26-.56-.57-.56-.25 0-.46.16-.54.38 0 0 .22-.46.22-1.01s-.57-1.14-.57-1.14z"/>
      <path class="st79" d="M38.71 50.81h1.66v.41h-1.66z"/>
    </g>
    <g>
      <path class="st79" d="M37.5 51.13s-.52.59-.52 1.14.22 1.01.22 1.01a.575.575 0 0 0-.54-.38c-.31 0-.57.25-.57.56 0 .09.05.23.09.31l.19.39c.06-.14.21-.23.38-.23.23 0 .41.18.41.4 0 .03 0 .07-.01.1h-.47v.41h.42l-.31.64.41-.17.31.36.32-.36.41.17-.31-.64h.42v-.41h-.47c-.01-.03-.01-.07-.01-.1 0-.22.18-.4.41-.4.17 0 .31.08.38.23l.19-.39a.85.85 0 0 0 .09-.31c0-.31-.26-.56-.57-.56-.25 0-.46.16-.54.38 0 0 .22-.46.22-1.01s-.55-1.14-.55-1.14z"/>
      <path class="st79" d="M36.68 54.45h1.66v.41h-1.66z"/>
    </g>
    <path class="st2" d="M49.92 32h-.11c0 .01-.06.1-.1.14-.1.1-.24.11-.33.03a.184.184 0 0 1-.05-.16c-.07.03-.13.03-.19 0-.1-.06-.12-.2-.05-.32.01-.02.02-.05.04-.07l-.01-.13-.13.03-.04.08c-.08.1-.21.12-.27.06-.03-.03-.05-.1-.05-.1s-.03.03-.07.04c-.21.05-.29-.42-.29-.54l-.07.1s.06.28.03.52-.11.48-.11.48c.28.08.71.32 1.13.66.42.34.76.7.89.96 0 0 .22-.13.45-.2.23-.08.52-.08.52-.08l.08-.08c-.12.02-.6.04-.6-.17 0-.04.03-.07.03-.07s-.08 0-.11-.03c-.07-.05-.07-.17.01-.27l.07-.05.01-.13-.13.02c-.01.02-.04.04-.06.05-.1.09-.25.1-.33.02-.05-.05-.06-.12-.04-.19-.06.02-.12.01-.17-.02-.1-.06-.12-.21-.04-.32.04-.05.11-.12.12-.13l-.03-.13z"/>
    <path class="st72" d="M49.07 32.27c.02-.02.06-.02.09 0s.04.06.02.08-.06.02-.09 0-.04-.06-.02-.08zM49.43 32.59l-.12-.1c-.02-.02-.03-.05-.02-.07s.04-.02.07 0l.13.1.13.1c.02.02.03.05.01.06-.01.02-.05.02-.07 0l-.13-.09zM48.76 32.11l-.1-.06c-.03-.02-.04-.04-.03-.06.01-.02.04-.02.06-.01l.1.06.1.06c.02.02.04.04.03.06-.01.02-.04.02-.07.01l-.09-.06zM48.37 31.83c.02-.02.06-.02.09 0s.04.06.02.08-.06.02-.09 0-.04-.06-.02-.08zM49.83 32.88c.02-.02.01-.06-.02-.08s-.07-.02-.09 0-.01.06.02.08.07.02.09 0zM50.05 33.14l.08.08c.02.02.05.03.07.01.02-.01.02-.04 0-.06l-.08-.08-.09-.09c-.02-.02-.05-.03-.07-.01-.02.01-.02.04 0 .06l.09.09zM50.41 33.46c.02-.02.01-.06-.02-.08s-.07-.02-.09 0-.01.06.02.08.07.02.09 0z"/>
    <g>
      <path class="st2" d="m49.36 31.06-.23.01-.04.35.02.05.06-.01.29-.2z"/>
      <path class="st2" d="m48.75 31.25-.01.22.35.04.06-.02-.01-.06-.2-.28z"/>
      <path class="st2" d="m49.47 31.68-.19.11-.2-.28v-.06l.05-.03.35.05z"/>
      <path class="st2" d="M49.02 31.42c.03-.05.1-.07.15-.04.05.03.07.1.04.15s-.1.07-.15.04c-.06-.04-.07-.1-.04-.15z"/>
    </g>
    <g>
      <path class="st18" d="M48.2 31.06s-.05-.18-.1-.28a.683.683 0 0 0-.15-.17c.01-.03.16-.08.33.04.14.12-.01.34-.01.34s-.04.05-.07.07z"/>
      <path class="st2" d="m48.59 31.18-.16.15-.26-.24.02-.03.01-.06.36-.03z"/>
      <path class="st2" d="M48.15 31.04c.02-.06.07-.09.11-.08s.06.07.04.13-.07.09-.11.08c-.04-.02-.06-.07-.04-.13z"/>
    </g>
    <g>
      <path class="st2" d="M50.22 31.63 50 31.6l-.1.34.02.05.06.01.32-.16z"/>
      <path class="st2" d="m49.59 31.73-.04.21.34.09.06-.01.01-.06-.17-.31z"/>
      <path class="st2" d="m50.25 32.25-.2.09-.17-.31.01-.06.06-.02.34.09z"/>
      <path class="st2" d="M49.84 31.93a.11.11 0 0 1 .15-.02c.05.04.05.11.02.15a.11.11 0 0 1-.15.02c-.06-.04-.06-.11-.02-.15z"/>
    </g>
    <g>
      <path class="st2" d="m50.98 32.36.04.21-.33.12-.06-.01-.01-.06.14-.32z"/>
      <path class="st2" d="m50.92 32.99-.22.05-.11-.33.01-.06.06-.01.32.14z"/>
      <path class="st2" d="m50.34 32.37-.07.21.33.14.06-.01.01-.06-.12-.33z"/>
      <path class="st2" d="M50.7 32.76c.04-.04.05-.11 0-.15-.04-.04-.11-.05-.15-.01s-.05.11 0 .15c.04.05.1.05.15.01z"/>
    </g>
    <g>
      <path class="st18" d="M51.22 33.48c0 .01.19.01.3.03.08.02.2.11.2.11.02-.01.04-.17-.11-.31-.15-.11-.34.08-.34.08s-.04.05-.05.09z"/>
      <path class="st2" d="m51.02 33.12-.11.19.29.2.03-.03.05-.02-.04-.35z"/>
      <path class="st2" d="M51.26 33.52c.05-.03.08-.09.06-.12-.02-.04-.08-.04-.14-.01-.05.03-.08.09-.06.12s.08.04.14.01z"/>
    </g>
  </g>
</svg>
